<svg width="17" height="16" viewBox="0 0 17 16" fill="none" xmlns="http://www.w3.org/2000/svg">
<path d="M7.0415 7.99999V7.33333M7.0415 12V10.6667M7.0415 12C6.30512 12 5.70817 12.5969 5.70817 13.3333C5.70817 14.0697 6.30512 14.6667 7.0415 14.6667C7.77788 14.6667 8.37484 14.0697 8.37484 13.3333C8.37484 12.5969 7.77788 12 7.0415 12ZM7.0415 4.66666V3.99999M9.70817 1.33333V3.99999C9.70817 4.35362 9.84865 4.69276 10.0987 4.9428C10.3487 5.19285 10.6879 5.33333 11.0415 5.33333H13.7082M10.7082 14.6667H12.3748C12.7285 14.6667 13.0676 14.5262 13.3176 14.2761C13.5677 14.0261 13.7082 13.6869 13.7082 13.3333V4.66666L10.3748 1.33333H4.37484C4.02122 1.33333 3.68208 1.4738 3.43203 1.72385C3.18198 1.9739 3.0415 2.31304 3.0415 2.66666V13.3333C3.04155 13.57 3.1046 13.8024 3.22417 14.0067" stroke="white" stroke-width="1.25" stroke-linecap="round" stroke-linejoin="round"/>
</svg>
