<svg width="17" height="16" viewBox="0 0 17 16" fill="none" xmlns="http://www.w3.org/2000/svg">
<path d="M4.625 13.3333H7.29167M9.95833 6.66667H12.625M4.625 9.33334H5.95833V13.3333M9.95833 2.66667H11.2917V6.66667M11.2917 9.33334C12.028 9.33334 12.625 9.93029 12.625 10.6667V12C12.625 12.7364 12.028 13.3333 11.2917 13.3333C10.5553 13.3333 9.95833 12.7364 9.95833 12V10.6667C9.95833 9.93029 10.5553 9.33334 11.2917 9.33334ZM5.95833 2.66667C6.69471 2.66667 7.29167 3.26363 7.29167 4.00001V5.33334C7.29167 6.06972 6.69471 6.66667 5.95833 6.66667C5.22195 6.66667 4.625 6.06972 4.625 5.33334V4.00001C4.625 3.26363 5.22195 2.66667 5.95833 2.66667Z" stroke="white" stroke-width="1.25" stroke-linecap="round" stroke-linejoin="round"/>
</svg>
