<svg width="17" height="16" viewBox="0 0 17 16" fill="none" xmlns="http://www.w3.org/2000/svg">
<path d="M7.4165 1.33333H10.0832M8.74984 9.33333V6.66666M3.4165 8.66666C3.57975 7.37064 4.21294 6.1796 5.196 5.31942C6.17906 4.45924 7.44362 3.98975 8.74984 3.99999C9.61254 4.00091 10.4621 4.21109 11.2258 4.6125C11.9894 5.01391 12.6442 5.59457 13.1341 6.30468C13.624 7.01478 13.9344 7.83312 14.0385 8.68951C14.1426 9.5459 14.0375 10.4148 13.732 11.2216C13.4266 12.0284 12.93 12.7491 12.2848 13.3218C11.6397 13.8945 10.8652 14.3022 10.0279 14.5099C9.19054 14.7175 8.31533 14.7189 7.47733 14.514C6.63932 14.3091 5.86353 13.9039 5.2165 13.3333L3.4165 11.7333M6.74984 11.3333H3.4165V14.6667" stroke="white" stroke-width="1.25" stroke-linecap="round" stroke-linejoin="round"/>
</svg>
