<svg width="212" height="72" viewBox="0 0 212 72" fill="none" xmlns="http://www.w3.org/2000/svg">
<g clip-path="url(#clip0_2694_21387)">
<mask id="mask0_2694_21387" style="mask-type:luminance" maskUnits="userSpaceOnUse" x="0" y="0" width="72" height="72">
<path d="M0 0H72V72H0V0Z" fill="white"/>
</mask>
<g mask="url(#mask0_2694_21387)">
<path d="M40.3345 58.962C41.1906 56.5622 41.6026 54.0932 41.567 51.4124C43.0906 53.3921 43.3394 55.5624 43.3321 57.8221C44.0774 55.7318 44.6042 53.606 44.5784 51.3175C45.3048 52.217 45.5934 53.5106 45.8934 56.9072C46.3882 54.855 46.7083 52.7741 46.8938 50.6542C47.9901 52.1321 48.2786 53.8451 48.3593 55.6214C48.3989 55.6271 48.4386 55.6328 48.4782 55.6385C48.9069 53.8814 49.3357 52.1243 49.779 50.3075C50.3994 51.6092 50.524 52.9681 50.5594 54.3786C50.8669 53.0389 51.1744 51.6992 51.4819 50.3596C51.5212 50.3594 51.5606 50.3593 51.5999 50.3591C51.6907 51.2387 51.7814 52.1182 51.8746 53.0222C52.5478 51.5103 52.7023 49.8934 53.014 48.293C53.7354 49.4255 53.762 50.7191 54.0269 51.9917C54.2314 51.0701 54.4359 50.1484 54.6405 49.2268C54.6807 49.221 54.7209 49.2153 54.7612 49.2096C54.8171 49.7725 54.873 50.3355 54.9289 50.8985C54.952 50.9088 54.975 50.9192 54.998 50.9295C55.1959 50.1634 55.4152 49.4021 55.5855 48.6299C55.757 47.8521 55.8798 47.0635 56.0429 46.1764C56.392 47.1569 56.4271 48.0852 56.3618 49.0262C57.8917 45.2414 59.4777 41.4855 59.4916 37.314C59.4919 37.2438 59.5155 37.1737 59.5979 37.1156C60.6721 42.8833 59.5298 48.2836 56.9372 53.4436C56.8978 53.4374 56.8584 53.4312 56.819 53.425C57.0078 52.3643 57.1966 51.3036 57.3854 50.2429C57.3478 50.232 57.3102 50.2211 57.2726 50.2101C56.6088 52.131 55.9451 54.0519 55.2813 55.9728C55.248 55.9607 55.2147 55.9487 55.1814 55.9366L55.327 53.0315C55.2829 53.0239 55.2388 53.0163 55.1947 53.0086C54.624 55.2864 53.7484 57.4338 52.5023 59.4308C52.8465 57.4695 53.2709 55.5214 53.0553 53.5097C52.3812 56.6955 51.1683 59.6512 49.3735 62.3696C49.988 60.1492 50.5411 57.929 50.1326 55.5995C49.562 58.797 48.1861 61.6145 46.1865 64.1476C46.9603 62.2072 47.5761 60.2312 47.7066 58.1343C47.7376 57.6372 47.7113 57.1367 47.6811 56.6289C47.0605 60.0085 45.5839 62.9833 43.4614 65.6659C44.4119 63.2953 45.1178 60.8802 44.9668 58.2813C44.0354 61.3231 42.6424 64.1122 40.5206 66.5214C41.5053 64.2859 42.0275 61.9684 41.8636 59.5137C41.1611 62.4775 40.1098 65.2635 37.8969 67.4808C38.872 65.2116 39.0992 62.8484 38.8674 60.4167C38.3131 62.3675 37.6339 64.2616 36.6161 66.0828C36.455 64.3092 36.2995 62.5987 36.1441 60.8883C36.0903 60.8887 36.0365 60.8892 35.9827 60.8897C35.5462 62.5421 35.5137 64.2413 35.4413 65.9562C34.3644 64.2779 33.723 62.425 33.1253 60.5083C33.1043 61.0812 33.0617 61.6544 33.0685 62.2271C33.0754 62.821 33.0952 63.419 33.1741 64.0066C33.2508 64.578 33.3807 65.1468 33.5402 65.7015C33.7033 66.2683 33.9308 66.8166 34.0941 67.3898C31.8963 65.1987 30.897 62.4114 30.1625 59.4785C30.074 60.6797 30.1198 61.8741 30.4262 63.0336C30.7326 64.1932 31.128 65.3293 31.4658 66.4158C30.9996 66.1234 29.5993 64.136 28.8328 62.6648C28.1125 61.2825 27.4522 59.8781 27.0672 58.3551C26.8963 60.9157 27.6219 63.2843 28.5656 65.6168C26.4393 62.9935 25.0071 60.042 24.3328 56.6853C24.1356 57.4495 24.2354 58.925 24.6738 60.4875C25.0136 61.6984 25.4513 62.8818 25.8606 64.1233C23.7712 61.6377 22.4847 58.8257 21.968 55.6386C21.5818 56.5862 21.817 58.8086 22.6262 62.2207C21.6696 60.9314 20.9521 59.5058 20.4041 58.0057C19.859 56.5133 19.4117 54.9852 18.9183 53.4629C18.8903 55.4722 19.1741 57.4497 19.5709 59.4254C18.2608 57.4894 17.4879 55.3295 16.7614 53.1034C16.8035 54.0494 16.8457 54.9954 16.8878 55.9414C16.8418 55.956 16.7957 55.9707 16.7496 55.9853C16.1238 54.1371 15.498 52.2889 14.8721 50.4407C14.8233 50.4528 14.7744 50.4649 14.7256 50.4771C14.9067 51.4612 15.0878 52.4453 15.2705 53.438C12.911 51.0609 11.0549 40.2332 12.5206 36.9857C12.6198 39.1804 12.8768 41.2402 13.5322 43.2156C14.1808 45.1706 14.9285 47.0929 15.6688 49.0325C15.7088 48.1141 15.6369 47.1815 16.0334 46.2319C16.1961 47.0907 16.3295 47.8722 16.4951 48.6468C16.66 49.4181 16.8573 50.1825 17.1267 50.9304C17.1807 50.3306 17.2348 49.7308 17.2889 49.131C17.3309 49.1327 17.3729 49.1343 17.4149 49.136C17.6143 50.0513 17.8137 50.9666 18.0131 51.8819C18.052 51.8794 18.091 51.8769 18.13 51.8744C18.1847 50.6009 18.3012 49.3428 19.0106 48.0986C19.3744 49.7754 19.7123 51.3323 20.0501 52.8891C20.0976 52.8839 20.145 52.8788 20.1924 52.8736C20.2811 52.0529 20.3698 51.2321 20.4585 50.4113C20.4994 50.4108 20.5404 50.4102 20.5813 50.4096C20.855 51.6927 21.1288 52.9759 21.4025 54.259C21.4439 54.2578 21.4852 54.2567 21.5266 54.2555C21.4586 52.8769 21.5947 51.5398 22.2287 50.2285C22.6845 52.0435 23.1187 53.7727 23.5529 55.5019C23.5867 55.498 23.6204 55.4941 23.6542 55.4903C23.7158 54.9182 23.7422 54.3395 23.8488 53.776C23.9559 53.21 24.1022 52.6437 24.3061 52.106C24.513 51.5608 24.8114 51.0503 25.104 50.4548C25.4536 52.7288 25.7839 54.8776 26.1143 57.0264C26.1595 57.0197 26.2048 57.013 26.25 57.0063C26.2129 55.0372 26.3607 53.1074 27.4201 51.3629C27.4553 53.5932 27.9794 55.7119 28.6995 57.8026C28.6604 55.5271 28.9606 53.3597 30.4412 51.5044C30.4007 54.066 30.8761 56.5283 31.6961 58.9418C31.6235 56.6807 31.6313 54.4406 32.7727 52.388C32.9763 54.7671 33.5305 57.055 34.2999 59.3081C34.062 56.5573 34.5127 53.9725 35.9977 51.5293C37.5601 53.9975 37.9845 56.6237 37.7055 59.4178C38.4543 57.1303 39.0071 54.8093 39.2243 52.399C40.417 54.4382 40.3439 56.7001 40.3345 58.962Z" fill="white"/>
<path d="M25.5932 48.9802C22.3176 48.546 20.0351 46.463 17.7274 44.4061C18.2757 45.5494 19.235 46.3779 19.9908 47.3611C17.4578 45.9155 15.9852 43.6535 15.0683 40.9647C14.1571 38.2924 13.918 35.5739 14.5703 32.7953C14.5324 32.7866 14.4945 32.7779 14.4566 32.7691C14.1385 33.4187 13.8203 34.0682 13.4952 34.732C12.8661 30.8027 18.3159 22.188 22.7585 20.1337C20.4723 22.5421 18.6682 25.1579 17.9612 28.483C18.4583 27.9545 18.9006 27.484 19.343 27.0136C18.3464 31.6346 20.5148 34.9972 23.3757 38.1132C22.929 37.2731 22.7114 36.3801 22.7185 35.4213C23.544 37.3657 25.1932 38.6085 26.6012 40.0501C28.7569 42.2572 30.4995 44.7748 32.1553 47.36C32.2052 47.4379 32.2528 47.5174 32.4055 47.5815C32.3713 47.2601 32.3549 46.9355 32.2979 46.6182C32.2405 46.2987 32.1427 45.9864 32.061 45.6644C32.7763 46.2459 34.3279 49.7619 34.3217 50.8443C32.5151 49.1798 30.6587 47.6823 27.9696 47.7011C28.3794 48.0646 28.7358 48.3807 29.0922 48.6968C27.2179 48.4193 25.3999 48.0267 23.6433 47.2665C23.9607 47.5609 24.2721 47.8621 24.5972 48.1478C24.9221 48.4333 25.2606 48.7034 25.5932 48.9802Z" fill="#0E9594"/>
<path d="M58.5428 34.6696C58.2103 34.0607 57.8778 33.4519 57.5454 32.8431C57.4959 32.8538 57.4464 32.8645 57.3969 32.8752C58.1345 35.6325 57.852 38.3267 56.9596 40.9771C56.0568 43.6584 54.5706 45.8996 52.0676 47.3574C52.9733 46.3478 53.9412 45.386 54.5391 44.1353C52.6816 45.9046 50.8716 47.7376 48.3698 48.6038C47.7548 48.8168 47.1122 48.9504 46.4335 49.0214C47.1687 48.447 47.9038 47.8726 48.6389 47.2982C48.6134 47.2539 48.5879 47.2096 48.5624 47.1653C46.801 48.0141 44.9205 48.4277 43.024 48.7824C43.0008 48.7467 42.9777 48.7111 42.9545 48.6754C43.3435 48.3702 43.7326 48.065 44.1845 47.7104C41.4656 47.6376 39.5452 49.1005 37.7109 50.7853C38.2235 48.883 38.7526 47.0088 40.0201 45.4373C39.8687 46.1797 39.7206 46.906 39.5724 47.6324C39.6069 47.6465 39.6413 47.6607 39.6758 47.6749C39.7127 47.6427 39.7607 47.6172 39.7849 47.5773C41.8462 44.1776 44.2113 41.0288 47.1441 38.3115C47.9997 37.5188 48.6385 36.492 49.34 35.6181C49.2921 36.4194 49.0896 37.2901 48.6026 38.1042C49.5124 37.5976 51.4138 34.8841 52.1226 33.1233C52.9062 31.1769 53.2657 29.1974 52.6213 27.1228C52.6655 27.0981 52.7098 27.0734 52.754 27.0487C53.1844 27.5195 53.6148 27.9902 54.1405 28.5652C53.5202 25.2364 51.6351 22.7539 49.6113 20.3439C54.554 23.8863 57.8692 28.451 58.5428 34.6696Z" fill="#0E9594"/>
<path d="M33.7838 25.8073C33.655 24.2651 33.5262 22.723 33.3877 21.0657C32.9745 22.783 32.6377 24.4165 32.6276 26.0805C32.6177 27.727 32.7588 29.3744 32.8295 30.9312C31.5473 26.8751 31.326 22.698 32.6129 18.3947C32.2205 18.9209 31.7277 20.4562 31.566 21.7778C31.4256 22.9256 31.2997 24.0817 31.2808 25.236C31.2617 26.4051 31.3817 27.5764 31.3888 28.7699C31.2314 28.138 31.0555 27.5099 30.9217 26.8731C30.7867 26.2306 30.6596 25.5829 30.5912 24.9309C30.5212 24.2631 30.5021 23.5873 30.5061 22.9152C30.51 22.2621 30.5715 21.6092 30.6077 20.9562C30.5651 20.9398 30.5225 20.9233 30.48 20.9068C30.1285 21.8604 29.7052 22.7949 29.4457 23.7729C29.1827 24.7639 29.0816 25.7979 28.8338 26.8284C28.8065 25.8495 28.7226 24.8679 28.7677 23.8922C28.8128 22.9181 28.9871 21.95 29.1085 20.9482C27.2566 24.3745 26.8613 27.9414 27.9003 31.7022C27.331 31.1904 26.4592 28.6945 26.2106 26.8553C25.9751 25.1128 26.1241 23.3961 26.684 21.6358C25.0866 23.71 23.6523 26.4889 23.8759 30.3561C23.5806 29.5805 23.4209 28.7725 23.3994 27.9418C23.3782 27.1193 23.3948 26.2959 23.3948 25.448C22.1162 27.2932 21.4813 29.3629 21.3853 31.6186C21.3355 31.6206 21.2857 31.6226 21.2359 31.6246C21.1549 30.8792 21.0332 30.1356 20.9996 29.3881C20.7817 24.5432 22.9138 20.8303 26.5911 17.8734C26.8592 17.6578 27.1335 17.4479 27.4187 17.2559C29.3717 15.9409 30.2651 13.9888 30.6953 11.771C30.7832 11.3177 30.7475 10.8405 30.768 10.3893C31.323 10.8697 31.4568 11.6677 31.4567 14.2142C31.6561 13.8009 31.9194 13.4057 32.043 12.9708C32.419 11.6485 32.7302 10.3079 33.0864 8.9797C33.6907 6.726 35.3379 5.0593 37.5731 4.51925C35.8731 6.07351 34.6206 7.79626 33.9428 9.98251C34.4216 9.36595 34.8531 8.81038 35.2846 8.2548C35.3094 8.27205 35.3342 8.28934 35.359 8.30659C35.052 9.23211 34.7451 10.1576 34.4382 11.0831C34.4758 11.1008 34.5134 11.1185 34.551 11.1362C35.4986 9.01875 36.5196 6.95659 38.6185 5.70571C38.3188 6.07171 38.0192 6.43769 37.6559 6.8814C38.3381 6.50561 38.9261 6.1817 39.5141 5.85778C39.5398 5.88972 39.5655 5.92169 39.5912 5.95366C39.5704 6.00204 39.5577 6.05628 39.5276 6.09794C37.3997 9.0432 36.4808 12.3701 36.8633 15.9397C37.4056 21.0014 36.9281 26.0022 36.3815 31.0141C36.3001 31.7597 36.2304 32.5065 36.0847 33.2546C35.57 28.4332 35.0553 23.6117 34.5598 18.9704C34.3582 21.1177 34.1384 23.4577 33.9187 25.7977C33.8737 25.8009 33.8288 25.8041 33.7838 25.8073Z" fill="white"/>
<path d="M44.3327 31.1399C45.1989 25.6942 43.9912 20.8233 40.4129 16.5638C41.7496 20.3897 41.6652 24.2703 41.0015 28.0064C41.0015 26.9613 41.0198 25.7465 40.9977 24.5325C40.9508 21.9487 40.3311 19.4807 39.3793 17.0964C38.8973 15.8889 38.8913 14.6609 38.9843 13.4517C39.8759 14.7238 40.7823 16.0169 41.6886 17.3101C41.7367 17.2783 41.7847 17.2466 41.8327 17.2148C41.6556 16.947 41.4775 16.6797 41.3016 16.411C41.1132 16.1231 40.9201 15.8381 40.7409 15.5445C40.0699 14.4445 39.4408 13.3277 39.3606 11.9966C39.3227 11.3695 39.3954 10.7643 39.6607 10.1155C39.7082 10.2296 39.7354 10.2671 39.7387 10.3066C39.9548 12.8993 41.0043 15.1801 42.4977 17.2454C45.3223 21.1517 45.768 25.428 44.667 29.9837C44.5728 30.3733 44.4449 30.7547 44.3327 31.1399Z" fill="white"/>
<path d="M37.8482 13.2074C37.9545 13.9267 38.0326 14.5894 38.1535 15.2441C38.4091 16.6274 38.7354 17.9992 38.9447 19.389C39.2756 21.5863 38.7902 23.715 38.2669 25.8316C38.1025 26.4961 37.9349 27.1598 37.686 27.8167C37.686 27.6901 37.6791 27.5631 37.687 27.437C37.8582 24.6804 37.736 21.9339 37.37 19.1993C37.1066 17.231 37.2956 15.2997 37.7531 13.3827C37.7628 13.3421 37.7935 13.3066 37.8482 13.2074Z" fill="white"/>
<path d="M26.8409 37.9235C25.4676 36.5238 24.8646 34.7211 24.0859 33.0536C25.8533 34.6242 27.6278 36.201 29.5133 37.8766C28.6108 37.4559 27.8315 37.0927 27.0158 36.7124C27.034 36.9026 27.0498 37.067 27.0732 37.311C26.9036 37.1745 26.7859 37.0798 26.5736 36.909C26.681 37.3166 26.761 37.6201 26.8409 37.9235Z" fill="white"/>
<path d="M45.2224 37.8901C45.2909 37.6285 45.3593 37.3668 45.4622 36.9738C45.2449 37.137 45.1421 37.2143 44.9961 37.324C45.0244 37.1081 45.0459 36.9446 45.0783 36.6974C44.1978 37.1114 43.3789 37.4964 42.5601 37.8814C42.5557 37.8678 42.5513 37.8543 42.5469 37.8407C44.3377 36.2714 46.1285 34.702 47.8857 33.1622C47.1121 34.7368 46.5314 36.5022 45.2224 37.8901Z" fill="white"/>
<path d="M33.3134 44.1176C32.2058 42.7075 31.149 41.362 30.1016 40.0284C31.5535 40.4683 33.1651 42.4806 33.3134 44.1176Z" fill="white"/>
<path d="M38.6953 44.1827C39.0529 42.1669 40.1523 40.8748 41.8768 40.0553C40.8329 41.4097 39.798 42.7522 38.6953 44.1827Z" fill="white"/>
<path d="M48.1748 22.5008C46.7363 20.6213 45.2317 18.6553 43.7344 16.6988C44.8189 17.3603 47.6075 21.0318 48.1748 22.5008Z" fill="white"/>
</g>
</g>
<path d="M78.1236 34.879V30.9H91.6016V34.879H87.0936V47H82.6316V34.879H78.1236ZM95.9495 38.95C95.9495 39.8087 96.1182 40.5753 96.4555 41.25C96.7929 41.9093 97.2682 42.4307 97.8815 42.814C98.4949 43.182 99.2155 43.366 100.044 43.366C100.887 43.366 101.608 43.182 102.206 42.814C102.819 42.4307 103.294 41.9093 103.632 41.25C103.969 40.5753 104.138 39.8087 104.138 38.95C104.138 38.076 103.977 37.3093 103.655 36.65C103.333 35.9907 102.865 35.477 102.252 35.109C101.654 34.7257 100.918 34.534 100.044 34.534C99.2155 34.534 98.4949 34.7257 97.8815 35.109C97.2682 35.477 96.7929 35.9907 96.4555 36.65C96.1182 37.3093 95.9495 38.076 95.9495 38.95ZM91.2345 38.95C91.2345 37.6773 91.4569 36.5273 91.9015 35.5C92.3615 34.4573 92.9902 33.568 93.7875 32.832C94.5849 32.0807 95.5125 31.5057 96.5705 31.107C97.6439 30.693 98.8015 30.486 100.044 30.486C101.316 30.486 102.482 30.693 103.54 31.107C104.613 31.5057 105.548 32.0807 106.346 32.832C107.143 33.568 107.756 34.4573 108.186 35.5C108.63 36.5273 108.853 37.6773 108.853 38.95C108.853 40.2073 108.638 41.365 108.209 42.423C107.779 43.481 107.174 44.401 106.392 45.183C105.61 45.9497 104.674 46.5477 103.586 46.977C102.512 47.391 101.332 47.598 100.044 47.598C98.7555 47.598 97.5749 47.391 96.5015 46.977C95.4282 46.5477 94.4929 45.9497 93.6955 45.183C92.9135 44.401 92.3079 43.481 91.8785 42.423C91.4492 41.365 91.2345 40.2073 91.2345 38.95ZM115.616 39.893H120.193L125.023 47H119.825L115.616 39.893ZM111.246 30.9H115.708V47H111.246V30.9ZM114.098 34.672V30.9H117.571C119.043 30.9 120.255 31.13 121.205 31.59C122.171 32.05 122.884 32.6863 123.344 33.499C123.82 34.2963 124.057 35.224 124.057 36.282C124.057 37.3247 123.82 38.26 123.344 39.088C122.884 39.9007 122.171 40.537 121.205 40.997C120.255 41.4417 119.043 41.664 117.571 41.664H114.098V38.283H117.203C117.679 38.283 118.077 38.214 118.399 38.076C118.721 37.938 118.967 37.731 119.135 37.455C119.319 37.179 119.411 36.8493 119.411 36.466C119.411 36.0827 119.319 35.7607 119.135 35.5C118.967 35.224 118.721 35.017 118.399 34.879C118.077 34.741 117.679 34.672 117.203 34.672H114.098ZM126.423 45.252C126.423 44.5927 126.645 44.033 127.09 43.573C127.55 43.0977 128.14 42.86 128.861 42.86C129.582 42.86 130.164 43.0977 130.609 43.573C131.054 44.033 131.276 44.5927 131.276 45.252C131.276 45.896 131.054 46.4557 130.609 46.931C130.164 47.391 129.582 47.621 128.861 47.621C128.14 47.621 127.55 47.391 127.09 46.931C126.645 46.4557 126.423 45.896 126.423 45.252ZM137.603 39.134V37.271H140.202C140.616 37.271 140.961 37.2097 141.237 37.087C141.513 36.9643 141.72 36.788 141.858 36.558C142.012 36.328 142.088 36.052 142.088 35.73C142.088 35.2393 141.927 34.879 141.605 34.649C141.299 34.419 140.831 34.304 140.202 34.304H138.753V43.596H140.616C141.061 43.596 141.46 43.55 141.812 43.458C142.18 43.366 142.472 43.1973 142.686 42.952C142.901 42.6913 143.008 42.3233 143.008 41.848C143.008 41.5413 142.947 41.2883 142.824 41.089C142.702 40.8897 142.525 40.7287 142.295 40.606C142.081 40.4833 141.828 40.399 141.536 40.353C141.26 40.307 140.954 40.284 140.616 40.284H137.603V37.846H141.168C141.95 37.846 142.725 37.938 143.491 38.122C144.258 38.2907 144.956 38.5667 145.584 38.95C146.213 39.318 146.711 39.801 147.079 40.399C147.463 40.9817 147.654 41.687 147.654 42.515C147.654 43.5883 147.394 44.4547 146.872 45.114C146.351 45.7733 145.607 46.2563 144.641 46.563C143.675 46.8543 142.518 47 141.168 47H134.291V30.9H140.754C141.904 30.9 142.924 31.0533 143.813 31.36C144.718 31.6667 145.431 32.1267 145.952 32.74C146.474 33.338 146.734 34.097 146.734 35.017C146.734 35.891 146.474 36.6423 145.952 37.271C145.431 37.8843 144.718 38.352 143.813 38.674C142.924 38.9807 141.904 39.134 140.754 39.134H137.603ZM150.283 30.9H154.745V43.205H161.254V47H150.283V30.9ZM166.477 44.401L166.615 41.112H174.872L174.987 44.401H166.477ZM170.686 37.501L168.57 42.331L168.846 43.32L166.983 47H161.923L170.686 29.819L179.472 47H174.412L172.572 43.481L172.825 42.331L170.686 37.501ZM184.338 38.95C184.338 39.8547 184.537 40.629 184.936 41.273C185.35 41.9017 185.894 42.3847 186.569 42.722C187.243 43.044 187.987 43.205 188.8 43.205C189.566 43.205 190.233 43.1053 190.801 42.906C191.368 42.7067 191.874 42.4537 192.319 42.147C192.763 41.825 193.154 41.4877 193.492 41.135V45.827C192.863 46.287 192.165 46.6703 191.399 46.977C190.647 47.2683 189.681 47.414 188.501 47.414C187.167 47.414 185.94 47.2147 184.821 46.816C183.701 46.4173 182.743 45.8423 181.946 45.091C181.148 44.3397 180.527 43.4503 180.083 42.423C179.653 41.3803 179.439 40.2227 179.439 38.95C179.439 37.6773 179.653 36.5273 180.083 35.5C180.527 34.4573 181.148 33.5603 181.946 32.809C182.743 32.0577 183.701 31.4827 184.821 31.084C185.94 30.6853 187.167 30.486 188.501 30.486C189.681 30.486 190.647 30.6317 191.399 30.923C192.165 31.2143 192.863 31.5977 193.492 32.073V36.765C193.154 36.4123 192.763 36.0827 192.319 35.776C191.874 35.454 191.368 35.1933 190.801 34.994C190.233 34.7947 189.566 34.695 188.8 34.695C187.987 34.695 187.243 34.8637 186.569 35.201C185.894 35.523 185.35 36.006 184.936 36.65C184.537 37.2787 184.338 38.0453 184.338 38.95ZM196.575 30.9H201.221V47H196.575V30.9ZM206.442 30.9H211.64L205.246 38.444L211.985 47H206.58L199.933 38.582L206.442 30.9Z" fill="white"/>
<path d="M79.2492 58.092C79.3932 58.344 79.5432 58.566 79.6992 58.758C79.8612 58.95 80.0412 59.1 80.2392 59.208C80.4372 59.316 80.6622 59.37 80.9142 59.37C81.2502 59.37 81.5202 59.277 81.7242 59.091C81.9282 58.905 82.0302 58.668 82.0302 58.38C82.0302 58.098 81.9642 57.873 81.8322 57.705C81.7002 57.537 81.5262 57.402 81.3102 57.3C81.1002 57.192 80.8752 57.096 80.6352 57.012C80.4792 56.958 80.3052 56.889 80.1132 56.805C79.9212 56.715 79.7382 56.604 79.5642 56.472C79.3902 56.334 79.2462 56.166 79.1322 55.968C79.0242 55.77 78.9702 55.527 78.9702 55.239C78.9702 54.927 79.0482 54.648 79.2042 54.402C79.3602 54.156 79.5762 53.964 79.8522 53.826C80.1282 53.682 80.4432 53.61 80.7972 53.61C81.1392 53.61 81.4362 53.676 81.6882 53.808C81.9462 53.934 82.1652 54.099 82.3452 54.303C82.5252 54.501 82.6662 54.711 82.7682 54.933L82.1112 55.311C82.0332 55.155 81.9342 55.002 81.8142 54.852C81.6942 54.702 81.5472 54.579 81.3732 54.483C81.2052 54.387 80.9982 54.339 80.7522 54.339C80.4102 54.339 80.1612 54.423 80.0052 54.591C79.8492 54.753 79.7712 54.936 79.7712 55.14C79.7712 55.314 79.8162 55.476 79.9062 55.626C79.9962 55.77 80.1462 55.908 80.3562 56.04C80.5722 56.166 80.8632 56.292 81.2292 56.418C81.3972 56.478 81.5742 56.556 81.7602 56.652C81.9462 56.748 82.1172 56.871 82.2732 57.021C82.4352 57.165 82.5672 57.342 82.6692 57.552C82.7712 57.756 82.8222 58.002 82.8222 58.29C82.8222 58.566 82.7682 58.815 82.6602 59.037C82.5582 59.259 82.4142 59.448 82.2282 59.604C82.0482 59.76 81.8412 59.88 81.6072 59.964C81.3792 60.048 81.1392 60.09 80.8872 60.09C80.5452 60.09 80.2272 60.018 79.9332 59.874C79.6452 59.724 79.3902 59.529 79.1682 59.289C78.9522 59.043 78.7752 58.782 78.6372 58.506L79.2492 58.092ZM88.1489 56.94V56.22H92.4689V56.94H88.1489ZM91.9559 53.7H92.7209V60H91.9559V53.7ZM87.7259 53.7H88.4909V60H87.7259V53.7ZM98.5425 58.11L98.8125 57.39H101.602L101.872 58.11H98.5425ZM100.189 55.122L99.1275 57.624L99.0555 57.786L98.1195 60H97.2645L100.189 53.385L103.114 60H102.259L101.341 57.84L101.269 57.66L100.189 55.122ZM107.661 53.7H108.426V60H107.661V53.7ZM109.551 60H108.084V59.235H109.551C109.905 59.235 110.229 59.181 110.523 59.073C110.817 58.959 111.069 58.8 111.279 58.596C111.489 58.386 111.651 58.134 111.765 57.84C111.879 57.546 111.936 57.216 111.936 56.85C111.936 56.484 111.879 56.154 111.765 55.86C111.651 55.566 111.489 55.317 111.279 55.113C111.069 54.903 110.817 54.744 110.523 54.636C110.229 54.522 109.905 54.465 109.551 54.465H108.084V53.7H109.551C110.163 53.7 110.706 53.832 111.18 54.096C111.654 54.36 112.026 54.729 112.296 55.203C112.566 55.671 112.701 56.22 112.701 56.85C112.701 57.48 112.566 58.032 112.296 58.506C112.026 58.974 111.654 59.34 111.18 59.604C110.706 59.868 110.163 60 109.551 60ZM118.008 56.85C118.008 57.324 118.11 57.747 118.314 58.119C118.524 58.491 118.809 58.785 119.169 59.001C119.529 59.217 119.937 59.325 120.393 59.325C120.855 59.325 121.263 59.217 121.617 59.001C121.977 58.785 122.259 58.491 122.463 58.119C122.673 57.747 122.778 57.324 122.778 56.85C122.778 56.376 122.673 55.953 122.463 55.581C122.259 55.209 121.977 54.915 121.617 54.699C121.263 54.483 120.855 54.375 120.393 54.375C119.937 54.375 119.529 54.483 119.169 54.699C118.809 54.915 118.524 55.209 118.314 55.581C118.11 55.953 118.008 56.376 118.008 56.85ZM117.198 56.85C117.198 56.388 117.276 55.962 117.432 55.572C117.594 55.176 117.819 54.834 118.107 54.546C118.395 54.252 118.734 54.024 119.124 53.862C119.514 53.694 119.937 53.61 120.393 53.61C120.855 53.61 121.278 53.694 121.662 53.862C122.052 54.024 122.391 54.252 122.679 54.546C122.967 54.834 123.189 55.176 123.345 55.572C123.507 55.962 123.588 56.388 123.588 56.85C123.588 57.306 123.507 57.732 123.345 58.128C123.189 58.524 122.967 58.869 122.679 59.163C122.391 59.451 122.052 59.679 121.662 59.847C121.278 60.009 120.855 60.09 120.393 60.09C119.937 60.09 119.514 60.009 119.124 59.847C118.734 59.679 118.395 59.451 118.107 59.163C117.819 58.869 117.594 58.524 117.432 58.128C117.276 57.732 117.198 57.306 117.198 56.85ZM133.783 58.335L135.421 53.7H136.276L133.801 60.315L131.911 55.419L130.021 60.315L127.546 53.7H128.401L130.075 58.335L131.911 53.385L133.783 58.335ZM152.116 53.7H152.881V60.315L148.111 55.311V60H147.346V53.385L152.116 58.389V53.7ZM158.528 60V59.28H161.705V60H158.528ZM158.528 54.42V53.7H161.705V54.42H158.528ZM158.528 56.94V56.22H161.525V56.94H158.528ZM158.105 53.7H158.87V60H158.105V53.7ZM166.203 54.42V53.7H170.208V54.42H168.588V60H167.823V54.42H166.203ZM180.676 58.335L182.314 53.7H183.169L180.694 60.315L178.804 55.419L176.914 60.315L174.439 53.7H175.294L176.968 58.335L178.804 53.385L180.676 58.335ZM188.079 56.85C188.079 57.324 188.181 57.747 188.385 58.119C188.595 58.491 188.88 58.785 189.24 59.001C189.6 59.217 190.008 59.325 190.464 59.325C190.926 59.325 191.334 59.217 191.688 59.001C192.048 58.785 192.33 58.491 192.534 58.119C192.744 57.747 192.849 57.324 192.849 56.85C192.849 56.376 192.744 55.953 192.534 55.581C192.33 55.209 192.048 54.915 191.688 54.699C191.334 54.483 190.926 54.375 190.464 54.375C190.008 54.375 189.6 54.483 189.24 54.699C188.88 54.915 188.595 55.209 188.385 55.581C188.181 55.953 188.079 56.376 188.079 56.85ZM187.269 56.85C187.269 56.388 187.347 55.962 187.503 55.572C187.665 55.176 187.89 54.834 188.178 54.546C188.466 54.252 188.805 54.024 189.195 53.862C189.585 53.694 190.008 53.61 190.464 53.61C190.926 53.61 191.349 53.694 191.733 53.862C192.123 54.024 192.462 54.252 192.75 54.546C193.038 54.834 193.26 55.176 193.416 55.572C193.578 55.962 193.659 56.388 193.659 56.85C193.659 57.306 193.578 57.732 193.416 58.128C193.26 58.524 193.038 58.869 192.75 59.163C192.462 59.451 192.123 59.679 191.733 59.847C191.349 60.009 190.926 60.09 190.464 60.09C190.008 60.09 189.585 60.009 189.195 59.847C188.805 59.679 188.466 59.451 188.178 59.163C187.89 58.869 187.665 58.524 187.503 58.128C187.347 57.732 187.269 57.306 187.269 56.85ZM199.645 56.895H200.5L202.75 60H201.805L199.645 56.895ZM198.52 53.7H199.285V60H198.52V53.7ZM198.943 54.375V53.7H200.23C200.638 53.7 201.001 53.778 201.319 53.934C201.643 54.084 201.898 54.3 202.084 54.582C202.276 54.864 202.372 55.2 202.372 55.59C202.372 55.974 202.276 56.31 202.084 56.598C201.898 56.88 201.643 57.099 201.319 57.255C201.001 57.405 200.638 57.48 200.23 57.48H198.943V56.805H200.23C200.5 56.805 200.737 56.757 200.941 56.661C201.151 56.565 201.313 56.427 201.427 56.247C201.547 56.067 201.607 55.848 201.607 55.59C201.607 55.332 201.547 55.113 201.427 54.933C201.313 54.753 201.151 54.615 200.941 54.519C200.737 54.423 200.5 54.375 200.23 54.375H198.943ZM207.336 53.7H208.101V60H207.336V53.7ZM210.576 53.7H211.521L208.794 56.652L211.656 60H210.711L207.867 56.67L210.576 53.7Z" fill="#0E9594"/>
<defs>
<clipPath id="clip0_2694_21387">
<rect width="72" height="72" fill="white"/>
</clipPath>
</defs>
</svg>
