<svg width="204" height="63" viewBox="0 0 204 63" fill="none" xmlns="http://www.w3.org/2000/svg">
<path d="M28.3345 54.4812C29.1906 52.0814 29.6026 49.6125 29.567 46.9316C31.0906 48.9113 31.3394 51.0817 31.3321 53.3413C32.0774 51.2511 32.6042 49.1252 32.5784 46.8367C33.3048 47.7362 33.5934 49.0298 33.8934 52.4264C34.3882 50.3742 34.7083 48.2934 34.8938 46.1734C35.9901 47.6514 36.2786 49.3644 36.3593 51.1406C36.3989 51.1463 36.4386 51.152 36.4782 51.1578C36.9069 49.4006 37.3357 47.6435 37.779 45.8268C38.3994 47.1284 38.524 48.4873 38.5594 49.8978C38.8669 48.5581 39.1744 47.2185 39.4819 45.8788C39.5212 45.8786 39.5606 45.8785 39.5999 45.8784C39.6906 46.7579 39.7814 47.6374 39.8746 48.5414C40.5478 47.0295 40.7023 45.4126 41.014 43.8123C41.7354 44.9447 41.762 46.2383 42.0269 47.511C42.2314 46.5893 42.4359 45.6677 42.6405 44.746C42.6807 44.7403 42.7209 44.7345 42.7612 44.7288C42.8171 45.2918 42.873 45.8547 42.9289 46.4177C42.952 46.428 42.975 46.4384 42.998 46.4487C43.1959 45.6827 43.4152 44.9213 43.5855 44.1492C43.757 43.3713 43.8798 42.5827 44.0429 41.6956C44.392 42.6762 44.4271 43.6044 44.3618 44.5454C45.8917 40.7606 47.4777 37.0047 47.4916 32.8332C47.4919 32.763 47.5155 32.693 47.5979 32.6348C48.6721 38.4026 47.5298 43.8028 44.9372 48.9629C44.8978 48.9566 44.8584 48.9504 44.819 48.9442C45.0078 47.8835 45.1966 46.8228 45.3854 45.7622C45.3478 45.7512 45.3102 45.7403 45.2726 45.7293C44.6089 47.6502 43.9451 49.5711 43.2813 51.492C43.248 51.48 43.2147 51.4679 43.1814 51.4558L43.327 48.5507C43.2829 48.5431 43.2388 48.5355 43.1947 48.5279C42.624 50.8056 41.7484 52.9531 40.5023 54.9501C40.8465 52.9887 41.2709 51.0406 41.0553 49.0289C40.3812 52.2147 39.1683 55.1704 37.3735 57.8888C37.988 55.6684 38.5411 53.4482 38.1326 51.1187C37.562 54.3163 36.1861 57.1338 34.1865 59.6668C34.9603 57.7264 35.5761 55.7504 35.7067 53.6535C35.7376 53.1565 35.7113 52.6559 35.6811 52.1481C35.0605 55.5277 33.5839 58.5025 31.4614 61.1851C32.4119 58.8146 33.1178 56.3995 32.9668 53.8005C32.0354 56.8423 30.6424 59.6314 28.5206 62.0406C29.5053 59.8051 30.0275 57.4876 29.8636 55.0329C29.1611 57.9967 28.1098 60.7827 25.8969 63C26.872 60.7308 27.0992 58.3676 26.8674 55.9359C26.3131 57.8867 25.6339 59.7808 24.6161 61.602C24.455 59.8284 24.2995 58.118 24.1441 56.4075C24.0903 56.4079 24.0365 56.4084 23.9827 56.4089C23.5462 58.0614 23.5137 59.7605 23.4413 61.4754C22.3644 59.7971 21.723 57.9443 21.1253 56.0275C21.1043 56.6004 21.0617 57.1736 21.0685 57.7463C21.0754 58.3402 21.0952 58.9382 21.1741 59.5258C21.2508 60.0973 21.3807 60.666 21.5402 61.2208C21.7033 61.7876 21.9308 62.3358 22.0941 62.909C19.8963 60.7179 18.897 57.9307 18.1625 54.9977C18.074 56.199 18.1198 57.3933 18.4262 58.5528C18.7326 59.7124 19.128 60.8485 19.4658 61.935C18.9996 61.6426 17.5993 59.6552 16.8328 58.184C16.1125 56.8017 15.4522 55.3974 15.0672 53.8743C14.8963 56.4349 15.6219 58.8035 16.5656 61.136C14.4393 58.5127 13.0071 55.5612 12.3328 52.2045C12.1356 52.9687 12.2354 54.4442 12.6738 56.0067C13.0136 57.2176 13.4513 58.401 13.8606 59.6425C11.7712 57.1569 10.4847 54.3449 9.96795 51.1578C9.58181 52.1054 9.81704 54.3278 10.6262 57.7399C9.66956 56.4506 8.95205 55.025 8.40413 53.5249C7.85905 52.0326 7.41173 50.5045 6.91832 48.9821C6.89026 50.9915 7.17411 52.9689 7.57086 54.9446C6.26082 53.0086 5.48794 50.8487 4.76139 48.6226C4.80353 49.5686 4.8457 50.5146 4.88785 51.4606C4.84177 51.4752 4.79569 51.4899 4.74958 51.5045C4.12378 49.6563 3.49796 47.8081 2.87214 45.9599C2.82327 45.972 2.77443 45.9842 2.72559 45.9963C2.9067 46.9804 3.0878 47.9645 3.27049 48.9573C0.910976 46.5802 -0.945111 35.7524 0.520569 32.5049C0.619761 34.6996 0.876849 36.7594 1.53222 38.7348C2.18084 40.6899 2.92849 42.6121 3.66881 44.5518C3.70877 43.6333 3.63692 42.7007 4.03338 41.7511C4.1961 42.6099 4.32949 43.3914 4.49509 44.166C4.66001 44.9373 4.85727 45.7018 5.12669 46.4497C5.18074 45.8498 5.23482 45.25 5.28886 44.6502C5.33086 44.6519 5.37289 44.6536 5.41489 44.6552C5.61428 45.5706 5.81367 46.4858 6.01306 47.4011C6.05204 47.3986 6.09102 47.3961 6.12999 47.3936C6.18466 46.1201 6.30116 44.8621 7.01057 43.6178C7.37444 45.2946 7.71229 46.8515 8.05013 48.4084C8.09756 48.4032 8.14498 48.398 8.19241 48.3928C8.28111 47.5721 8.36981 46.7513 8.45852 45.9306C8.49944 45.93 8.54036 45.9294 8.58128 45.9288C8.85502 47.212 9.12877 48.4951 9.40251 49.7782C9.44386 49.7771 9.48521 49.7759 9.52657 49.7747C9.45865 48.3962 9.59468 47.059 10.2287 45.7477C10.6845 47.5627 11.1187 49.2919 11.5529 51.0211C11.5867 51.0173 11.6204 51.0134 11.6542 51.0095C11.7158 50.4374 11.7422 49.8587 11.8488 49.2952C11.9559 48.7292 12.1022 48.1629 12.3061 47.6252C12.513 47.08 12.8114 46.5696 13.104 45.974C13.4536 48.248 13.7839 50.3968 14.1143 52.5456C14.1595 52.5389 14.2048 52.5322 14.25 52.5255C14.2129 50.5565 14.3607 48.6266 15.4201 46.8822C15.4553 49.1124 15.9793 51.2311 16.6995 53.3218C16.6604 51.0463 16.9606 48.879 18.4412 47.0237C18.4007 49.5853 18.8761 52.0475 19.6961 54.461C19.6235 52.1999 19.6313 49.9599 20.7727 47.9072C20.9763 50.2864 21.5305 52.5743 22.2999 54.8274C22.062 52.0766 22.5127 49.4917 23.9977 47.0485C25.5601 49.5167 25.9845 52.143 25.7055 54.937C26.4543 52.6495 27.0071 50.3286 27.2243 47.9182C28.417 49.9574 28.3439 52.2193 28.3345 54.4812Z" fill="white"/>
<path d="M13.5964 44.4994C10.3208 44.0652 8.03822 41.9822 5.73057 39.9253C6.27882 41.0686 7.2381 41.8971 7.99393 42.8803C5.46095 41.4347 3.98834 39.1728 3.07146 36.4839C2.16021 33.8116 1.92112 31.0931 2.57344 28.3145C2.53554 28.3058 2.49765 28.2971 2.45975 28.2884C2.14161 28.9379 1.82346 29.5874 1.49831 30.2512C0.869224 26.3219 6.31905 17.7072 10.7616 15.653C8.47545 18.0613 6.67137 20.6771 5.96438 24.0022C6.46142 23.4737 6.90376 23.0032 7.3461 22.5328C6.34955 27.1538 8.51798 30.5164 11.3788 33.6324C10.9322 32.7923 10.7146 31.8993 10.7216 30.9405C11.5472 32.8849 13.1964 34.1277 14.6043 35.5693C16.7601 37.7764 18.5027 40.294 20.1584 42.8793C20.2083 42.9572 20.2559 43.0366 20.4087 43.1007C20.3745 42.7793 20.3581 42.4547 20.3011 42.1375C20.2437 41.8179 20.1459 41.5056 20.0641 41.1836C20.7794 41.7651 22.331 45.2811 22.3249 46.3635C20.5183 44.699 18.6618 43.2015 15.9728 43.2203C16.3826 43.5838 16.739 43.8999 17.0954 44.216C15.2211 43.9385 13.403 43.5459 11.6464 42.7857C11.9638 43.0801 12.2753 43.3813 12.6003 43.667C12.9252 43.9526 13.2638 44.2226 13.5964 44.4994Z" fill="white"/>
<path d="M46.5405 30.1888C46.208 29.58 45.8755 28.9711 45.543 28.3623C45.4935 28.373 45.444 28.3837 45.3946 28.3944C46.1322 31.1517 45.8496 33.846 44.9573 36.4963C44.0545 39.1776 42.5683 41.4189 40.0653 42.8766C40.9709 41.867 41.9389 40.9053 42.5367 39.6545C40.6793 41.4239 38.8693 43.2568 36.3675 44.1231C35.7524 44.3361 35.1098 44.4696 34.4312 44.5406C35.1663 43.9663 35.9015 43.3919 36.6366 42.8175C36.6111 42.7731 36.5856 42.7288 36.56 42.6845C34.7986 43.5333 32.9182 43.9469 31.0216 44.3016C30.9985 44.2659 30.9753 44.2303 30.9522 44.1946C31.3412 43.8894 31.7302 43.5842 32.1821 43.2296C29.4633 43.1568 27.5428 44.6197 25.7086 46.3045C26.2212 44.4022 26.7502 42.528 28.0177 40.9566C27.8664 41.6989 27.7182 42.4252 27.5701 43.1516C27.6045 43.1658 27.639 43.1799 27.6734 43.1941C27.7103 43.1619 27.7584 43.1365 27.7826 43.0966C29.8439 39.6968 32.2089 36.548 35.1418 33.8307C35.9974 33.038 36.6361 32.0112 37.3376 31.1373C37.2898 31.9387 37.0872 32.8094 36.6002 33.6234C37.5101 33.1168 39.4115 30.4033 40.1203 28.6425C40.9039 26.6961 41.2633 24.7166 40.619 22.642C40.6632 22.6173 40.7074 22.5926 40.7516 22.568C41.1821 23.0387 41.6125 23.5094 42.1382 24.0844C41.5179 20.7556 39.6327 18.2731 37.609 15.8632C42.5517 19.4055 45.8668 23.9702 46.5405 30.1888Z" fill="white"/>
<path d="M21.7875 21.3265C21.6587 19.7843 21.5299 18.2422 21.3914 16.5849C20.9782 18.3022 20.6414 19.9357 20.6313 21.5997C20.6214 23.2462 20.7625 24.8936 20.8332 26.4505C19.551 22.3943 19.3297 18.2172 20.6166 13.914C20.2241 14.4401 19.7314 15.9755 19.5697 17.2971C19.4293 18.4448 19.3034 19.6009 19.2845 20.7552C19.2654 21.9243 19.3854 23.0957 19.3925 24.2891C19.2351 23.6572 19.0592 23.0291 18.9254 22.3923C18.7904 21.7498 18.6633 21.1021 18.5949 20.4502C18.5249 19.7824 18.5058 19.1065 18.5098 18.4344C18.5137 17.7813 18.5752 17.1284 18.6114 16.4755C18.5688 16.459 18.5262 16.4425 18.4836 16.4261C18.1322 17.3796 17.7089 18.3142 17.4494 19.2922C17.1864 20.2831 17.0853 21.3171 16.8375 22.3476C16.8102 21.3687 16.7263 20.3871 16.7714 19.4115C16.8165 18.4373 16.9908 17.4692 17.1122 16.4675C15.2603 19.8937 14.8649 23.4606 15.904 27.2214C15.3347 26.7097 14.4629 24.2137 14.2143 22.3745C13.9788 20.632 14.1278 18.9153 14.6877 17.155C13.0903 19.2292 11.656 22.0081 11.8796 25.8753C11.5843 25.0997 11.4246 24.2917 11.4031 23.461C11.3819 22.6385 11.3985 21.8151 11.3985 20.9672C10.1199 22.8124 9.48499 24.8822 9.38899 27.1378C9.33919 27.1398 9.28939 27.1418 9.23959 27.1439C9.15864 26.3984 9.03693 25.6549 9.00331 24.9073C8.78536 20.0624 10.9175 16.3495 14.5948 13.3926C14.8629 13.177 15.1372 12.9671 15.4224 12.7751C17.3754 11.4602 18.2688 9.50801 18.699 7.29021C18.7869 6.83695 18.7511 6.35969 18.7717 5.90849C19.3267 6.38894 19.4604 7.18697 19.4604 9.73346C19.6598 9.32011 19.9231 8.92493 20.0467 8.49005C20.4227 7.16769 20.7339 5.82713 21.0901 4.49892C21.6944 2.24522 23.3416 0.578519 25.5768 0.0384713C23.8768 1.59274 22.6242 3.31548 21.9465 5.50173C22.4253 4.88517 22.8568 4.3296 23.2883 3.77402C23.3131 3.79128 23.3379 3.80856 23.3627 3.82582C23.0557 4.75133 22.7488 5.67684 22.4419 6.60235C22.4795 6.62004 22.5171 6.63773 22.5547 6.65541C23.5023 4.53797 24.5233 2.47581 26.6222 1.22493C26.3225 1.59093 26.0229 1.95691 25.6596 2.40062C26.3418 2.02483 26.9298 1.70093 27.5178 1.377C27.5435 1.40894 27.5692 1.44091 27.5949 1.47288C27.5741 1.52126 27.5614 1.5755 27.5313 1.61717C25.4034 4.56242 24.4845 7.88928 24.8669 11.459C25.4093 16.5206 24.9318 21.5214 24.3851 26.5333C24.3038 27.2789 24.234 28.0257 24.0884 28.7739C23.5737 23.9524 23.059 19.1309 22.5635 14.4896C22.3619 16.6369 22.1421 18.9769 21.9224 21.3169C21.8774 21.3201 21.8325 21.3233 21.7875 21.3265Z" fill="white"/>
<path d="M32.3336 26.6591C33.1998 21.2134 31.9922 16.3425 28.4138 12.083C29.7506 15.909 29.6662 19.7895 29.0025 23.5256C29.0025 22.4805 29.0208 21.2658 28.9987 20.0517C28.9517 17.4679 28.3321 14.9999 27.3803 12.6157C26.8982 11.4081 26.8922 10.1802 26.9853 8.97089C27.8769 10.243 28.7832 11.5361 29.6896 12.8293C29.7376 12.7975 29.7856 12.7658 29.8337 12.7341C29.6566 12.4662 29.4785 12.1989 29.3026 11.9302C29.1142 11.6424 28.921 11.3573 28.7419 11.0637C28.0708 9.96372 27.4418 8.84696 27.3615 7.5158C27.3237 6.88872 27.3964 6.28354 27.6616 5.63472C27.7092 5.7488 27.7363 5.78633 27.7396 5.82586C27.9558 8.41856 29.0052 10.6993 30.4986 12.7646C33.3232 16.6709 33.769 20.9472 32.6679 25.5029C32.5738 25.8925 32.4459 26.2739 32.3336 26.6591Z" fill="white"/>
<path d="M25.8479 8.72665C25.9543 9.44595 26.0323 10.1086 26.1533 10.7633C26.4088 12.1466 26.7351 13.5185 26.9444 14.9083C27.2753 17.1056 26.7899 19.2343 26.2666 21.3508C26.1023 22.0154 25.9346 22.679 25.6857 23.336C25.6857 23.2094 25.6788 23.0824 25.6867 22.9562C25.858 20.1997 25.7357 17.4531 25.3697 14.7186C25.1063 12.7503 25.2954 10.8189 25.7528 8.90197C25.7625 8.86139 25.7932 8.82579 25.8479 8.72665Z" fill="white"/>
<path d="M14.8384 33.4427C13.465 32.043 12.862 30.2403 12.0834 28.5728C13.8508 30.1434 15.6252 31.7202 17.5108 33.3958C16.6082 32.9751 15.829 32.6119 15.0132 32.2316C15.0314 32.4218 15.0472 32.5862 15.0707 32.8302C14.901 32.6937 14.7834 32.5991 14.5711 32.4282C14.6785 32.8358 14.7584 33.1393 14.8384 33.4427Z" fill="white"/>
<path d="M33.2192 33.4094C33.2877 33.1477 33.3562 32.886 33.459 32.493C33.2418 32.6563 33.139 32.7335 32.993 32.8432C33.0213 32.6274 33.0428 32.4638 33.0752 32.2166C32.1947 32.6306 31.3758 33.0156 30.5569 33.4006C30.5525 33.3871 30.5481 33.3735 30.5437 33.3599C32.3346 31.7906 34.1254 30.2213 35.8826 28.6815C35.109 30.256 34.5283 32.0215 33.2192 33.4094Z" fill="white"/>
<path d="M21.3128 39.6369C20.2053 38.2268 19.1484 36.8812 18.101 35.5477C19.553 35.9875 21.1645 37.9998 21.3128 39.6369Z" fill="white"/>
<path d="M26.6941 39.7019C27.0516 37.6861 28.151 36.3941 29.8756 35.5745C28.8316 36.9289 27.7967 38.2715 26.6941 39.7019Z" fill="white"/>
<path d="M36.1763 18.02C34.7378 16.1405 33.2332 14.1745 31.7358 12.218C32.8204 12.8795 35.6089 16.5511 36.1763 18.02Z" fill="white"/>
<path d="M67.9929 21.9H72.6159V38H67.9929V21.9ZM74.0189 38H71.0289V34.09H73.8349C74.3716 34.09 74.8929 34.0363 75.3989 33.929C75.9202 33.8063 76.3879 33.5993 76.8019 33.308C77.2159 33.0013 77.5456 32.5797 77.7909 32.043C78.0516 31.491 78.1819 30.7933 78.1819 29.95C78.1819 29.1067 78.0516 28.4167 77.7909 27.88C77.5456 27.328 77.2159 26.9063 76.8019 26.615C76.3879 26.3083 75.9202 26.1013 75.3989 25.994C74.8929 25.8713 74.3716 25.81 73.8349 25.81H71.0289V21.9H74.0189C75.8436 21.9 77.4076 22.2297 78.7109 22.889C80.0296 23.533 81.0416 24.453 81.7469 25.649C82.4676 26.845 82.8279 28.2787 82.8279 29.95C82.8279 31.606 82.4676 33.0397 81.7469 34.251C81.0416 35.447 80.0296 36.3747 78.7109 37.034C77.4076 37.678 75.8436 38 74.0189 38ZM91.5622 30.663L95.1042 21.9H100.348L91.5622 39.081L82.7992 21.9H88.0432L91.5622 30.663ZM101.931 21.9H106.554V38H101.931V21.9ZM107.957 38H104.967V34.09H107.773C108.31 34.09 108.831 34.0363 109.337 33.929C109.859 33.8063 110.326 33.5993 110.74 33.308C111.154 33.0013 111.484 32.5797 111.729 32.043C111.99 31.491 112.12 30.7933 112.12 29.95C112.12 29.1067 111.99 28.4167 111.729 27.88C111.484 27.328 111.154 26.9063 110.74 26.615C110.326 26.3083 109.859 26.1013 109.337 25.994C108.831 25.8713 108.31 25.81 107.773 25.81H104.967V21.9H107.957C109.782 21.9 111.346 22.2297 112.649 22.889C113.968 23.533 114.98 24.453 115.685 25.649C116.406 26.845 116.766 28.2787 116.766 29.95C116.766 31.606 116.406 33.0397 115.685 34.251C114.98 35.447 113.968 36.3747 112.649 37.034C111.346 37.678 109.782 38 107.957 38ZM118.164 36.252C118.164 35.5927 118.386 35.033 118.831 34.573C119.291 34.0977 119.881 33.86 120.602 33.86C121.322 33.86 121.905 34.0977 122.35 34.573C122.794 35.033 123.017 35.5927 123.017 36.252C123.017 36.896 122.794 37.4557 122.35 37.931C121.905 38.391 121.322 38.621 120.602 38.621C119.881 38.621 119.291 38.391 118.831 37.931C118.386 37.4557 118.164 36.896 118.164 36.252ZM129.344 30.134V28.271H131.943C132.357 28.271 132.702 28.2097 132.978 28.087C133.254 27.9643 133.461 27.788 133.599 27.558C133.752 27.328 133.829 27.052 133.829 26.73C133.829 26.2393 133.668 25.879 133.346 25.649C133.039 25.419 132.572 25.304 131.943 25.304H130.494V34.596H132.357C132.802 34.596 133.2 34.55 133.553 34.458C133.921 34.366 134.212 34.1973 134.427 33.952C134.642 33.6913 134.749 33.3233 134.749 32.848C134.749 32.5413 134.688 32.2883 134.565 32.089C134.442 31.8897 134.266 31.7287 134.036 31.606C133.821 31.4833 133.568 31.399 133.277 31.353C133.001 31.307 132.694 31.284 132.357 31.284H129.344V28.846H132.909C133.691 28.846 134.465 28.938 135.232 29.122C135.999 29.2907 136.696 29.5667 137.325 29.95C137.954 30.318 138.452 30.801 138.82 31.399C139.203 31.9817 139.395 32.687 139.395 33.515C139.395 34.5883 139.134 35.4547 138.613 36.114C138.092 36.7733 137.348 37.2563 136.382 37.563C135.416 37.8543 134.258 38 132.909 38H126.032V21.9H132.495C133.645 21.9 134.665 22.0533 135.554 22.36C136.459 22.6667 137.172 23.1267 137.693 23.74C138.214 24.338 138.475 25.097 138.475 26.017C138.475 26.891 138.214 27.6423 137.693 28.271C137.172 28.8843 136.459 29.352 135.554 29.674C134.665 29.9807 133.645 30.134 132.495 30.134H129.344ZM142.024 21.9H146.486V34.205H152.995V38H142.024V21.9ZM158.217 35.401L158.355 32.112H166.612L166.727 35.401H158.217ZM162.426 28.501L160.31 33.331L160.586 34.32L158.723 38H153.663L162.426 20.819L171.212 38H166.152L164.312 34.481L164.565 33.331L162.426 28.501ZM176.078 29.95C176.078 30.8547 176.278 31.629 176.676 32.273C177.09 32.9017 177.635 33.3847 178.309 33.722C178.984 34.044 179.728 34.205 180.54 34.205C181.307 34.205 181.974 34.1053 182.541 33.906C183.109 33.7067 183.615 33.4537 184.059 33.147C184.504 32.825 184.895 32.4877 185.232 32.135V36.827C184.604 37.287 183.906 37.6703 183.139 37.977C182.388 38.2683 181.422 38.414 180.241 38.414C178.907 38.414 177.681 38.2147 176.561 37.816C175.442 37.4173 174.484 36.8423 173.686 36.091C172.889 35.3397 172.268 34.4503 171.823 33.423C171.394 32.3803 171.179 31.2227 171.179 29.95C171.179 28.6773 171.394 27.5273 171.823 26.5C172.268 25.4573 172.889 24.5603 173.686 23.809C174.484 23.0577 175.442 22.4827 176.561 22.084C177.681 21.6853 178.907 21.486 180.241 21.486C181.422 21.486 182.388 21.6317 183.139 21.923C183.906 22.2143 184.604 22.5977 185.232 23.073V27.765C184.895 27.4123 184.504 27.0827 184.059 26.776C183.615 26.454 183.109 26.1933 182.541 25.994C181.974 25.7947 181.307 25.695 180.54 25.695C179.728 25.695 178.984 25.8637 178.309 26.201C177.635 26.523 177.09 27.006 176.676 27.65C176.278 28.2787 176.078 29.0453 176.078 29.95ZM188.316 21.9H192.962V38H188.316V21.9ZM198.183 21.9H203.381L196.987 29.444L203.726 38H198.321L191.674 29.582L198.183 21.9Z" fill="white"/>
<path d="M67.6637 49.092C67.8077 49.344 67.9577 49.566 68.1137 49.758C68.2757 49.95 68.4557 50.1 68.6537 50.208C68.8517 50.316 69.0767 50.37 69.3287 50.37C69.6647 50.37 69.9347 50.277 70.1387 50.091C70.3427 49.905 70.4447 49.668 70.4447 49.38C70.4447 49.098 70.3787 48.873 70.2467 48.705C70.1147 48.537 69.9407 48.402 69.7247 48.3C69.5147 48.192 69.2897 48.096 69.0497 48.012C68.8937 47.958 68.7197 47.889 68.5277 47.805C68.3357 47.715 68.1527 47.604 67.9787 47.472C67.8047 47.334 67.6607 47.166 67.5467 46.968C67.4387 46.77 67.3847 46.527 67.3847 46.239C67.3847 45.927 67.4627 45.648 67.6187 45.402C67.7747 45.156 67.9907 44.964 68.2667 44.826C68.5427 44.682 68.8577 44.61 69.2117 44.61C69.5537 44.61 69.8507 44.676 70.1027 44.808C70.3607 44.934 70.5797 45.099 70.7597 45.303C70.9397 45.501 71.0807 45.711 71.1827 45.933L70.5257 46.311C70.4477 46.155 70.3487 46.002 70.2287 45.852C70.1087 45.702 69.9617 45.579 69.7877 45.483C69.6197 45.387 69.4127 45.339 69.1667 45.339C68.8247 45.339 68.5757 45.423 68.4197 45.591C68.2637 45.753 68.1857 45.936 68.1857 46.14C68.1857 46.314 68.2307 46.476 68.3207 46.626C68.4107 46.77 68.5607 46.908 68.7707 47.04C68.9867 47.166 69.2777 47.292 69.6437 47.418C69.8117 47.478 69.9887 47.556 70.1747 47.652C70.3607 47.748 70.5317 47.871 70.6877 48.021C70.8497 48.165 70.9817 48.342 71.0837 48.552C71.1857 48.756 71.2367 49.002 71.2367 49.29C71.2367 49.566 71.1827 49.815 71.0747 50.037C70.9727 50.259 70.8287 50.448 70.6427 50.604C70.4627 50.76 70.2557 50.88 70.0217 50.964C69.7937 51.048 69.5537 51.09 69.3017 51.09C68.9597 51.09 68.6417 51.018 68.3477 50.874C68.0597 50.724 67.8047 50.529 67.5827 50.289C67.3667 50.043 67.1897 49.782 67.0517 49.506L67.6637 49.092ZM73.6204 45.42V44.7H77.6254V45.42H76.0054V51H75.2404V45.42H73.6204ZM80.0305 49.11L80.3005 48.39H83.0905L83.3605 49.11H80.0305ZM81.6775 46.122L80.6155 48.624L80.5435 48.786L79.6075 51H78.7525L81.6775 44.385L84.6025 51H83.7475L82.8295 48.84L82.7575 48.66L81.6775 46.122ZM87.8619 47.67V47.247H88.8789C89.0889 47.247 89.2779 47.211 89.4459 47.139C89.6139 47.067 89.7459 46.962 89.8419 46.824C89.9379 46.686 89.9859 46.518 89.9859 46.32C89.9859 46.02 89.8809 45.789 89.6709 45.627C89.4609 45.459 89.1969 45.375 88.8789 45.375H88.0239V50.325H88.9689C89.2389 50.325 89.4759 50.277 89.6799 50.181C89.8899 50.085 90.0519 49.947 90.1659 49.767C90.2859 49.587 90.3459 49.368 90.3459 49.11C90.3459 48.918 90.3129 48.747 90.2469 48.597C90.1809 48.447 90.0849 48.321 89.9589 48.219C89.8389 48.117 89.6949 48.042 89.5269 47.994C89.3589 47.94 89.1729 47.913 88.9689 47.913H87.8619V47.49H88.9689C89.2749 47.49 89.5569 47.523 89.8149 47.589C90.0729 47.655 90.2979 47.757 90.4899 47.895C90.6879 48.027 90.8409 48.198 90.9489 48.408C91.0569 48.618 91.1109 48.867 91.1109 49.155C91.1109 49.569 91.0149 49.914 90.8229 50.19C90.6369 50.46 90.3819 50.664 90.0579 50.802C89.7399 50.934 89.3769 51 88.9689 51H87.2589V44.7H88.8789C89.2569 44.7 89.5839 44.757 89.8599 44.871C90.1419 44.985 90.3609 45.159 90.5169 45.393C90.6729 45.621 90.7509 45.915 90.7509 46.275C90.7509 46.569 90.6729 46.821 90.5169 47.031C90.3609 47.241 90.1419 47.4 89.8599 47.508C89.5839 47.616 89.2569 47.67 88.8789 47.67H87.8619ZM94.1674 44.7H94.9324V50.28H97.4074V51H94.1674V44.7ZM100.532 51V50.28H103.709V51H100.532ZM100.532 45.42V44.7H103.709V45.42H100.532ZM100.532 47.94V47.22H103.529V47.94H100.532ZM100.109 44.7H100.874V51H100.109V44.7ZM111.671 50.64C111.671 50.502 111.719 50.385 111.815 50.289C111.917 50.193 112.034 50.145 112.166 50.145C112.304 50.145 112.421 50.193 112.517 50.289C112.613 50.385 112.661 50.502 112.661 50.64C112.661 50.772 112.613 50.889 112.517 50.991C112.421 51.087 112.304 51.135 112.166 51.135C112.034 51.135 111.917 51.087 111.815 50.991C111.719 50.889 111.671 50.772 111.671 50.64ZM121.135 51V50.28H124.312V51H121.135ZM121.135 45.42V44.7H124.312V45.42H121.135ZM121.135 47.94V47.22H124.132V47.94H121.135ZM120.712 44.7H121.477V51H120.712V44.7ZM128.153 49.11L128.423 48.39H131.213L131.483 49.11H128.153ZM129.8 46.122L128.738 48.624L128.666 48.786L127.73 51H126.875L129.8 44.385L132.725 51H131.87L130.952 48.84L130.88 48.66L129.8 46.122ZM135.616 49.092C135.76 49.344 135.91 49.566 136.066 49.758C136.228 49.95 136.408 50.1 136.606 50.208C136.804 50.316 137.029 50.37 137.281 50.37C137.617 50.37 137.887 50.277 138.091 50.091C138.295 49.905 138.397 49.668 138.397 49.38C138.397 49.098 138.331 48.873 138.199 48.705C138.067 48.537 137.893 48.402 137.677 48.3C137.467 48.192 137.242 48.096 137.002 48.012C136.846 47.958 136.672 47.889 136.48 47.805C136.288 47.715 136.105 47.604 135.931 47.472C135.757 47.334 135.613 47.166 135.499 46.968C135.391 46.77 135.337 46.527 135.337 46.239C135.337 45.927 135.415 45.648 135.571 45.402C135.727 45.156 135.943 44.964 136.219 44.826C136.495 44.682 136.81 44.61 137.164 44.61C137.506 44.61 137.803 44.676 138.055 44.808C138.313 44.934 138.532 45.099 138.712 45.303C138.892 45.501 139.033 45.711 139.135 45.933L138.478 46.311C138.4 46.155 138.301 46.002 138.181 45.852C138.061 45.702 137.914 45.579 137.74 45.483C137.572 45.387 137.365 45.339 137.119 45.339C136.777 45.339 136.528 45.423 136.372 45.591C136.216 45.753 136.138 45.936 136.138 46.14C136.138 46.314 136.183 46.476 136.273 46.626C136.363 46.77 136.513 46.908 136.723 47.04C136.939 47.166 137.23 47.292 137.596 47.418C137.764 47.478 137.941 47.556 138.127 47.652C138.313 47.748 138.484 47.871 138.64 48.021C138.802 48.165 138.934 48.342 139.036 48.552C139.138 48.756 139.189 49.002 139.189 49.29C139.189 49.566 139.135 49.815 139.027 50.037C138.925 50.259 138.781 50.448 138.595 50.604C138.415 50.76 138.208 50.88 137.974 50.964C137.746 51.048 137.506 51.09 137.254 51.09C136.912 51.09 136.594 51.018 136.3 50.874C136.012 50.724 135.757 50.529 135.535 50.289C135.319 50.043 135.142 49.782 135.004 49.506L135.616 49.092ZM145.631 44.7H146.486L144.389 48.282V51H143.624V48.291L141.527 44.7H142.382L144.002 47.616L145.631 44.7ZM153.861 50.64C153.861 50.502 153.909 50.385 154.005 50.289C154.107 50.193 154.224 50.145 154.356 50.145C154.494 50.145 154.611 50.193 154.707 50.289C154.803 50.385 154.851 50.502 154.851 50.64C154.851 50.772 154.803 50.889 154.707 50.991C154.611 51.087 154.494 51.135 154.356 51.135C154.224 51.135 154.107 51.087 154.005 50.991C153.909 50.889 153.861 50.772 153.861 50.64ZM163.136 49.092C163.28 49.344 163.43 49.566 163.586 49.758C163.748 49.95 163.928 50.1 164.126 50.208C164.324 50.316 164.549 50.37 164.801 50.37C165.137 50.37 165.407 50.277 165.611 50.091C165.815 49.905 165.917 49.668 165.917 49.38C165.917 49.098 165.851 48.873 165.719 48.705C165.587 48.537 165.413 48.402 165.197 48.3C164.987 48.192 164.762 48.096 164.522 48.012C164.366 47.958 164.192 47.889 164 47.805C163.808 47.715 163.625 47.604 163.451 47.472C163.277 47.334 163.133 47.166 163.019 46.968C162.911 46.77 162.857 46.527 162.857 46.239C162.857 45.927 162.935 45.648 163.091 45.402C163.247 45.156 163.463 44.964 163.739 44.826C164.015 44.682 164.33 44.61 164.684 44.61C165.026 44.61 165.323 44.676 165.575 44.808C165.833 44.934 166.052 45.099 166.232 45.303C166.412 45.501 166.553 45.711 166.655 45.933L165.998 46.311C165.92 46.155 165.821 46.002 165.701 45.852C165.581 45.702 165.434 45.579 165.26 45.483C165.092 45.387 164.885 45.339 164.639 45.339C164.297 45.339 164.048 45.423 163.892 45.591C163.736 45.753 163.658 45.936 163.658 46.14C163.658 46.314 163.703 46.476 163.793 46.626C163.883 46.77 164.033 46.908 164.243 47.04C164.459 47.166 164.75 47.292 165.116 47.418C165.284 47.478 165.461 47.556 165.647 47.652C165.833 47.748 166.004 47.871 166.16 48.021C166.322 48.165 166.454 48.342 166.556 48.552C166.658 48.756 166.709 49.002 166.709 49.29C166.709 49.566 166.655 49.815 166.547 50.037C166.445 50.259 166.301 50.448 166.115 50.604C165.935 50.76 165.728 50.88 165.494 50.964C165.266 51.048 165.026 51.09 164.774 51.09C164.432 51.09 164.114 51.018 163.82 50.874C163.532 50.724 163.277 50.529 163.055 50.289C162.839 50.043 162.662 49.782 162.524 49.506L163.136 49.092ZM170.146 51V50.28H173.323V51H170.146ZM170.146 45.42V44.7H173.323V45.42H170.146ZM170.146 47.94V47.22H173.143V47.94H170.146ZM169.723 44.7H170.488V51H169.723V44.7ZM177.011 47.85C177.011 48.336 177.119 48.765 177.335 49.137C177.557 49.509 177.845 49.8 178.199 50.01C178.553 50.22 178.937 50.325 179.351 50.325C179.651 50.325 179.924 50.286 180.17 50.208C180.422 50.13 180.65 50.022 180.854 49.884C181.058 49.74 181.232 49.575 181.376 49.389V50.397C181.112 50.631 180.824 50.805 180.512 50.919C180.2 51.033 179.813 51.09 179.351 51.09C178.913 51.09 178.502 51.012 178.118 50.856C177.74 50.694 177.407 50.469 177.119 50.181C176.831 49.887 176.606 49.542 176.444 49.146C176.282 48.75 176.201 48.318 176.201 47.85C176.201 47.382 176.282 46.95 176.444 46.554C176.606 46.158 176.831 45.816 177.119 45.528C177.407 45.234 177.74 45.009 178.118 44.853C178.502 44.691 178.913 44.61 179.351 44.61C179.813 44.61 180.2 44.667 180.512 44.781C180.824 44.895 181.112 45.069 181.376 45.303V46.311C181.232 46.125 181.058 45.963 180.854 45.825C180.65 45.681 180.422 45.57 180.17 45.492C179.924 45.414 179.651 45.375 179.351 45.375C178.937 45.375 178.553 45.48 178.199 45.69C177.845 45.9 177.557 46.191 177.335 46.563C177.119 46.929 177.011 47.358 177.011 47.85ZM184.567 44.7H185.332V48.93C185.332 49.362 185.449 49.71 185.683 49.974C185.917 50.238 186.259 50.37 186.709 50.37C187.159 50.37 187.501 50.238 187.735 49.974C187.969 49.71 188.086 49.362 188.086 48.93V44.7H188.851V48.93C188.851 49.242 188.8 49.53 188.698 49.794C188.602 50.058 188.458 50.286 188.266 50.478C188.08 50.67 187.855 50.82 187.591 50.928C187.327 51.036 187.033 51.09 186.709 51.09C186.385 51.09 186.091 51.036 185.827 50.928C185.563 50.82 185.335 50.67 185.143 50.478C184.957 50.286 184.813 50.058 184.711 49.794C184.615 49.53 184.567 49.242 184.567 48.93V44.7ZM193.261 47.895H194.116L196.366 51H195.421L193.261 47.895ZM192.136 44.7H192.901V51H192.136V44.7ZM192.559 45.375V44.7H193.846C194.254 44.7 194.617 44.778 194.935 44.934C195.259 45.084 195.514 45.3 195.7 45.582C195.892 45.864 195.988 46.2 195.988 46.59C195.988 46.974 195.892 47.31 195.7 47.598C195.514 47.88 195.259 48.099 194.935 48.255C194.617 48.405 194.254 48.48 193.846 48.48H192.559V47.805H193.846C194.116 47.805 194.353 47.757 194.557 47.661C194.767 47.565 194.929 47.427 195.043 47.247C195.163 47.067 195.223 46.848 195.223 46.59C195.223 46.332 195.163 46.113 195.043 45.933C194.929 45.753 194.767 45.615 194.557 45.519C194.353 45.423 194.116 45.375 193.846 45.375H192.559ZM199.485 51V50.28H202.662V51H199.485ZM199.485 45.42V44.7H202.662V45.42H199.485ZM199.485 47.94V47.22H202.482V47.94H199.485ZM199.062 44.7H199.827V51H199.062V44.7Z" fill="white"/>
</svg>
