<svg width="249" height="72" viewBox="0 0 249 72" fill="none" xmlns="http://www.w3.org/2000/svg">
<g clip-path="url(#clip0_2483_12251)">
<mask id="mask0_2483_12251" style="mask-type:luminance" maskUnits="userSpaceOnUse" x="0" y="0" width="72" height="72">
<path d="M0 0H72V72H0V0Z" fill="white"/>
</mask>
<g mask="url(#mask0_2483_12251)">
<path d="M40.3345 58.962C41.1906 56.5621 41.6026 54.0932 41.567 51.4124C43.0906 53.392 43.3394 55.5624 43.3321 57.8221C44.0774 55.7318 44.6042 53.606 44.5784 51.3175C45.3048 52.217 45.5934 53.5105 45.8934 56.9071C46.3882 54.855 46.7083 52.7741 46.8938 50.6541C47.9901 52.1321 48.2786 53.8451 48.3593 55.6213C48.3989 55.6271 48.4386 55.6328 48.4782 55.6385C48.9069 53.8814 49.3357 52.1243 49.779 50.3075C50.3994 51.6092 50.524 52.9681 50.5594 54.3786C50.8669 53.0389 51.1744 51.6992 51.4819 50.3595C51.5212 50.3594 51.5606 50.3593 51.5999 50.3591C51.6907 51.2387 51.7814 52.1182 51.8746 53.0222C52.5478 51.5103 52.7023 49.8933 53.014 48.293C53.7354 49.4255 53.762 50.719 54.0269 51.9917C54.2314 51.0701 54.4359 50.1484 54.6405 49.2268C54.6807 49.221 54.7209 49.2153 54.7612 49.2096C54.8171 49.7725 54.873 50.3355 54.9289 50.8985C54.952 50.9088 54.975 50.9191 54.998 50.9295C55.1959 50.1634 55.4152 49.4021 55.5855 48.6299C55.757 47.8521 55.8798 47.0635 56.0429 46.1764C56.392 47.1569 56.4271 48.0852 56.3618 49.0262C57.8917 45.2414 59.4777 41.4855 59.4916 37.314C59.4919 37.2438 59.5155 37.1737 59.5979 37.1156C60.6721 42.8833 59.5298 48.2836 56.9372 53.4436C56.8978 53.4374 56.8584 53.4312 56.819 53.425C57.0078 52.3643 57.1966 51.3036 57.3854 50.2429C57.3478 50.232 57.3102 50.221 57.2726 50.2101C56.6088 52.131 55.9451 54.0519 55.2813 55.9728C55.248 55.9607 55.2147 55.9487 55.1814 55.9366L55.327 53.0315C55.2829 53.0239 55.2388 53.0162 55.1947 53.0086C54.624 55.2864 53.7484 57.4338 52.5023 59.4308C52.8465 57.4695 53.2709 55.5214 53.0553 53.5097C52.3812 56.6955 51.1683 59.6512 49.3735 62.3696C49.988 60.1492 50.5411 57.929 50.1326 55.5995C49.562 58.797 48.1861 61.6145 46.1865 64.1476C46.9603 62.2071 47.5761 60.2312 47.7066 58.1342C47.7376 57.6372 47.7113 57.1367 47.6811 56.6288C47.0605 60.0085 45.5839 62.9833 43.4614 65.6659C44.4119 63.2953 45.1178 60.8802 44.9668 58.2813C44.0354 61.3231 42.6424 64.1122 40.5206 66.5214C41.5053 64.2859 42.0275 61.9683 41.8636 59.5137C41.1611 62.4775 40.1098 65.2635 37.8969 67.4808C38.872 65.2116 39.0992 62.8484 38.8674 60.4167C38.3131 62.3675 37.6339 64.2616 36.6161 66.0828C36.455 64.3092 36.2995 62.5987 36.1441 60.8882C36.0903 60.8887 36.0365 60.8892 35.9827 60.8896C35.5462 62.5421 35.5137 64.2412 35.4413 65.9562C34.3644 64.2778 33.723 62.425 33.1253 60.5083C33.1043 61.0812 33.0617 61.6544 33.0685 62.227C33.0754 62.8209 33.0952 63.419 33.1741 64.0065C33.2508 64.578 33.3807 65.1468 33.5402 65.7015C33.7033 66.2683 33.9308 66.8166 34.0941 67.3898C31.8963 65.1987 30.897 62.4114 30.1625 59.4784C30.074 60.6797 30.1198 61.8741 30.4262 63.0336C30.7326 64.1932 31.128 65.3293 31.4658 66.4158C30.9996 66.1234 29.5993 64.136 28.8328 62.6648C28.1125 61.2825 27.4522 59.8781 27.0672 58.3551C26.8963 60.9157 27.6219 63.2843 28.5656 65.6168C26.4393 62.9935 25.0071 60.042 24.3328 56.6853C24.1356 57.4495 24.2354 58.925 24.6738 60.4875C25.0136 61.6984 25.4513 62.8818 25.8606 64.1233C23.7712 61.6377 22.4847 58.8256 21.968 55.6386C21.5818 56.5862 21.817 58.8086 22.6262 62.2207C21.6696 60.9314 20.9521 59.5058 20.4041 58.0057C19.859 56.5133 19.4117 54.9852 18.9183 53.4628C18.8903 55.4722 19.1741 57.4496 19.5709 59.4254C18.2608 57.4894 17.4879 55.3295 16.7614 53.1034C16.8035 54.0494 16.8457 54.9954 16.8878 55.9414C16.8418 55.956 16.7957 55.9706 16.7496 55.9853C16.1238 54.1371 15.498 52.2889 14.8721 50.4407C14.8233 50.4528 14.7744 50.4649 14.7256 50.477C14.9067 51.4612 15.0878 52.4453 15.2705 53.438C12.911 51.0609 11.0549 40.2332 12.5206 36.9857C12.6198 39.1804 12.8768 41.2402 13.5322 43.2156C14.1808 45.1706 14.9285 47.0929 15.6688 49.0325C15.7088 48.1141 15.6369 47.1815 16.0334 46.2319C16.1961 47.0907 16.3295 47.8722 16.4951 48.6468C16.66 49.4181 16.8573 50.1825 17.1267 50.9304C17.1807 50.3306 17.2348 49.7308 17.2889 49.131C17.3309 49.1326 17.3729 49.1343 17.4149 49.136C17.6143 50.0513 17.8137 50.9666 18.0131 51.8819C18.052 51.8794 18.091 51.8769 18.13 51.8744C18.1847 50.6009 18.3012 49.3428 19.0106 48.0986C19.3744 49.7754 19.7123 51.3323 20.0501 52.8891C20.0976 52.8839 20.145 52.8787 20.1924 52.8736C20.2811 52.0528 20.3698 51.2321 20.4585 50.4113C20.4994 50.4108 20.5404 50.4102 20.5813 50.4096C20.855 51.6927 21.1288 52.9759 21.4025 54.259C21.4439 54.2578 21.4852 54.2566 21.5266 54.2555C21.4586 52.8769 21.5947 51.5397 22.2287 50.2285C22.6845 52.0435 23.1187 53.7727 23.5529 55.5019C23.5867 55.498 23.6204 55.4941 23.6542 55.4903C23.7158 54.9182 23.7422 54.3395 23.8488 53.7759C23.9559 53.21 24.1022 52.6437 24.3061 52.106C24.513 51.5608 24.8114 51.0503 25.104 50.4548C25.4536 52.7288 25.7839 54.8776 26.1143 57.0264C26.1595 57.0197 26.2048 57.013 26.25 57.0062C26.2129 55.0372 26.3607 53.1074 27.4201 51.3629C27.4553 53.5932 27.9794 55.7119 28.6995 57.8025C28.6604 55.5271 28.9606 53.3597 30.4412 51.5044C30.4007 54.066 30.8761 56.5283 31.6961 58.9417C31.6235 56.6807 31.6313 54.4406 32.7727 52.388C32.9763 54.7671 33.5305 57.055 34.2999 59.3081C34.062 56.5573 34.5127 53.9725 35.9977 51.5293C37.5601 53.9975 37.9845 56.6237 37.7055 59.4178C38.4543 57.1303 39.0071 54.8093 39.2243 52.399C40.417 54.4382 40.3439 56.7001 40.3345 58.962Z" fill="white"/>
<path d="M25.5971 48.9802C22.3215 48.5459 20.039 46.463 17.7313 44.4061C18.2796 45.5494 19.2389 46.3779 19.9947 47.361C17.4617 45.9155 15.9891 43.6535 15.0722 40.9647C14.161 38.2923 13.9219 35.5739 14.5742 32.7953C14.5363 32.7866 14.4984 32.7779 14.4605 32.7691C14.1424 33.4187 13.8242 34.0682 13.4991 34.732C12.87 30.8026 18.3198 22.1879 22.7624 20.1337C20.4762 22.542 18.6721 25.1579 17.9651 28.483C18.4622 27.9544 18.9045 27.484 19.3469 27.0136C18.3503 31.6345 20.5187 34.9971 23.3796 38.1132C22.9329 37.2731 22.7153 36.3801 22.7224 35.4213C23.5479 37.3657 25.1972 38.6085 26.6051 40.05C28.7608 42.2572 30.5035 44.7747 32.1592 47.36C32.2091 47.4379 32.2567 47.5173 32.4094 47.5814C32.3752 47.2601 32.3588 46.9355 32.3018 46.6182C32.2444 46.2987 32.1466 45.9863 32.0649 45.6644C32.7802 46.2459 34.3318 49.7618 34.3256 50.8443C32.519 49.1798 30.6626 47.6823 27.9735 47.7011C28.3833 48.0645 28.7397 48.3807 29.0961 48.6968C27.2218 48.4193 25.4038 48.0267 23.6472 47.2665C23.9646 47.5609 24.276 47.8621 24.6011 48.1478C24.926 48.4333 25.2645 48.7033 25.5971 48.9802Z" fill="white"/>
<path d="M58.5409 34.6696C58.2084 34.0607 57.8759 33.4519 57.5434 32.8431C57.4939 32.8538 57.4444 32.8645 57.395 32.8752C58.1325 35.6325 57.85 38.3267 56.9577 40.9771C56.0549 43.6584 54.5687 45.8996 52.0657 47.3574C52.9713 46.3478 53.9393 45.386 54.5371 44.1352C52.6797 45.9046 50.8696 47.7376 48.3679 48.6038C47.7528 48.8168 47.1102 48.9504 46.4316 49.0214C47.1667 48.447 47.9019 47.8726 48.637 47.2982C48.6115 47.2539 48.586 47.2096 48.5604 47.1653C46.799 48.0141 44.9186 48.4277 43.022 48.7824C42.9988 48.7467 42.9757 48.711 42.9526 48.6754C43.3416 48.3702 43.7306 48.0649 44.1825 47.7104C41.4637 47.6375 39.5432 49.1005 37.709 50.7853C38.2216 48.883 38.7506 47.0088 40.0181 45.4373C39.8668 46.1796 39.7186 46.906 39.5705 47.6324C39.6049 47.6465 39.6394 47.6607 39.6738 47.6749C39.7107 47.6427 39.7588 47.6172 39.783 47.5773C41.8443 44.1776 44.2093 41.0288 47.1422 38.3115C47.9978 37.5188 48.6365 36.4919 49.338 35.6181C49.2902 36.4194 49.0876 37.2901 48.6006 38.1041C49.5105 37.5976 51.4119 34.8841 52.1207 33.1233C52.9043 31.1769 53.2637 29.1974 52.6194 27.1228C52.6636 27.0981 52.7078 27.0734 52.752 27.0487C53.1825 27.5195 53.6129 27.9902 54.1386 28.5652C53.5183 25.2364 51.6331 22.7538 49.6094 20.3439C54.5521 23.8863 57.8672 28.451 58.5409 34.6696Z" fill="white"/>
<path d="M33.7877 25.8073C33.6589 24.2651 33.5301 22.7229 33.3916 21.0656C32.9784 22.783 32.6416 24.4165 32.6315 26.0804C32.6216 27.727 32.7627 29.3744 32.8334 30.9312C31.5512 26.8751 31.3299 22.698 32.6168 18.3947C32.2244 18.9209 31.7316 20.4562 31.5699 21.7778C31.4295 22.9256 31.3036 24.0817 31.2847 25.2359C31.2656 26.405 31.3856 27.5764 31.3927 28.7698C31.2353 28.1379 31.0595 27.5099 30.9256 26.873C30.7906 26.2306 30.6635 25.5829 30.5951 24.9309C30.5251 24.2631 30.506 23.5873 30.51 22.9152C30.5139 22.262 30.5754 21.6092 30.6116 20.9562C30.569 20.9398 30.5264 20.9233 30.4839 20.9068C30.1324 21.8604 29.7091 22.7949 29.4496 23.7729C29.1866 24.7639 29.0855 25.7978 28.8377 26.8284C28.8104 25.8494 28.7265 24.8678 28.7717 23.8922C28.8167 22.9181 28.991 21.95 29.1124 20.9482C27.2605 24.3745 26.8652 27.9414 27.9042 31.7021C27.3349 31.1904 26.4631 28.6945 26.2145 26.8552C25.979 25.1128 26.128 23.3961 26.6879 21.6358C25.0905 23.71 23.6562 26.4889 23.8798 30.3561C23.5845 29.5804 23.4248 28.7725 23.4034 27.9418C23.3821 27.1193 23.3987 26.2959 23.3987 25.448C22.1201 27.2931 21.4852 29.3629 21.3892 31.6185C21.3394 31.6206 21.2896 31.6226 21.2398 31.6246C21.1589 30.8792 21.0371 30.1356 21.0035 29.3881C20.7856 24.5432 22.9177 20.8303 26.595 17.8734C26.8631 17.6578 27.1374 17.4479 27.4226 17.2558C29.3756 15.9409 30.269 13.9888 30.6992 11.771C30.7871 11.3177 30.7514 10.8404 30.772 10.3892C31.3269 10.8697 31.4607 11.6677 31.4606 14.2142C31.66 13.8009 31.9233 13.4057 32.0469 12.9708C32.4229 11.6485 32.7341 10.3079 33.0903 8.97968C33.6946 6.72598 35.3418 5.05928 37.577 4.51923C35.877 6.07349 34.6245 7.79624 33.9467 9.98249C34.4255 9.36593 34.857 8.81036 35.2885 8.25478C35.3133 8.27204 35.3381 8.28932 35.3629 8.30657C35.0559 9.23209 34.749 10.1576 34.4421 11.0831C34.4797 11.1008 34.5173 11.1185 34.5549 11.1362C35.5025 9.01873 36.5235 6.95657 38.6224 5.70569C38.3227 6.07169 38.0231 6.43767 37.6598 6.88138C38.342 6.50559 38.93 6.18168 39.518 5.85776C39.5437 5.8897 39.5694 5.92167 39.5951 5.95364C39.5743 6.00202 39.5616 6.05626 39.5315 6.09792C37.4036 9.04318 36.4847 12.37 36.8672 15.9397C37.4095 21.0013 36.932 26.0022 36.3854 31.0141C36.3041 31.7596 36.2343 32.5064 36.0886 33.2546C35.5739 28.4331 35.0592 23.6116 34.5637 18.9703C34.3621 21.1177 34.1423 23.4577 33.9226 25.7977C33.8776 25.8009 33.8327 25.8041 33.7877 25.8073Z" fill="white"/>
<path d="M44.3327 31.1398C45.1989 25.6942 43.9912 20.8233 40.4129 16.5638C41.7496 20.3897 41.6652 24.2703 41.0015 28.0064C41.0015 26.9613 41.0198 25.7465 40.9977 24.5325C40.9508 21.9487 40.3311 19.4807 39.3793 17.0964C38.8973 15.8889 38.8913 14.6609 38.9843 13.4517C39.8759 14.7238 40.7823 16.0169 41.6886 17.31C41.7367 17.2783 41.7847 17.2466 41.8327 17.2148C41.6556 16.9469 41.4775 16.6797 41.3016 16.411C41.1132 16.1231 40.9201 15.8381 40.7409 15.5445C40.0699 14.4445 39.4408 13.3277 39.3606 11.9966C39.3227 11.3695 39.3954 10.7643 39.6607 10.1155C39.7082 10.2296 39.7354 10.2671 39.7387 10.3066C39.9548 12.8993 41.0043 15.1801 42.4977 17.2454C45.3223 21.1517 45.768 25.428 44.667 29.9837C44.5728 30.3732 44.4449 30.7546 44.3327 31.1398Z" fill="white"/>
<path d="M37.8482 13.2074C37.9545 13.9267 38.0326 14.5894 38.1535 15.2441C38.4091 16.6274 38.7354 17.9992 38.9447 19.389C39.2756 21.5863 38.7902 23.715 38.2669 25.8316C38.1025 26.4961 37.9349 27.1598 37.686 27.8167C37.686 27.6901 37.6791 27.5631 37.687 27.437C37.8582 24.6804 37.736 21.9339 37.37 19.1993C37.1066 17.231 37.2956 15.2997 37.7531 13.3827C37.7628 13.3421 37.7935 13.3066 37.8482 13.2074Z" fill="white"/>
<path d="M26.839 37.9234C25.4656 36.5237 24.8626 34.7211 24.084 33.0536C25.8514 34.6242 27.6259 36.201 29.5114 37.8766C28.6088 37.4559 27.8296 37.0926 27.0138 36.7124C27.032 36.9026 27.0478 37.067 27.0713 37.311C26.9016 37.1745 26.784 37.0798 26.5717 36.909C26.6791 37.3166 26.759 37.62 26.839 37.9234Z" fill="white"/>
<path d="M45.2185 37.8901C45.287 37.6285 45.3554 37.3668 45.4583 36.9738C45.241 37.137 45.1382 37.2143 44.9922 37.324C45.0205 37.1081 45.042 36.9446 45.0744 36.6974C44.1939 37.1114 43.375 37.4964 42.5561 37.8814C42.5518 37.8678 42.5474 37.8542 42.543 37.8407C44.3338 36.2714 46.1246 34.702 47.8818 33.1622C47.1082 34.7367 46.5275 36.5022 45.2185 37.8901Z" fill="white"/>
<path d="M33.3134 44.1176C32.2058 42.7075 31.149 41.362 30.1016 40.0284C31.5535 40.4682 33.1651 42.4806 33.3134 44.1176Z" fill="white"/>
<path d="M38.6934 44.1827C39.0509 42.1669 40.1503 40.8748 41.8749 40.0553C40.8309 41.4096 39.796 42.7522 38.6934 44.1827Z" fill="white"/>
<path d="M48.1768 22.5008C46.7383 20.6212 45.2337 18.6553 43.7363 16.6988C44.8209 17.3602 47.6094 21.0318 48.1768 22.5008Z" fill="white"/>
</g>
</g>
<path d="M78.6236 34.879V30.9H92.1016V34.879H87.5936V47H83.1316V34.879H78.6236ZM96.4495 38.95C96.4495 39.8087 96.6182 40.5753 96.9555 41.25C97.2929 41.9093 97.7682 42.4307 98.3815 42.814C98.9949 43.182 99.7155 43.366 100.544 43.366C101.387 43.366 102.108 43.182 102.706 42.814C103.319 42.4307 103.794 41.9093 104.132 41.25C104.469 40.5753 104.638 39.8087 104.638 38.95C104.638 38.076 104.477 37.3093 104.155 36.65C103.833 35.9907 103.365 35.477 102.752 35.109C102.154 34.7257 101.418 34.534 100.544 34.534C99.7155 34.534 98.9949 34.7257 98.3815 35.109C97.7682 35.477 97.2929 35.9907 96.9555 36.65C96.6182 37.3093 96.4495 38.076 96.4495 38.95ZM91.7345 38.95C91.7345 37.6773 91.9569 36.5273 92.4015 35.5C92.8615 34.4573 93.4902 33.568 94.2875 32.832C95.0849 32.0807 96.0125 31.5057 97.0705 31.107C98.1439 30.693 99.3015 30.486 100.544 30.486C101.816 30.486 102.982 30.693 104.04 31.107C105.113 31.5057 106.048 32.0807 106.846 32.832C107.643 33.568 108.256 34.4573 108.686 35.5C109.13 36.5273 109.353 37.6773 109.353 38.95C109.353 40.2073 109.138 41.365 108.709 42.423C108.279 43.481 107.674 44.401 106.892 45.183C106.11 45.9497 105.174 46.5477 104.086 46.977C103.012 47.391 101.832 47.598 100.544 47.598C99.2555 47.598 98.0749 47.391 97.0015 46.977C95.9282 46.5477 94.9929 45.9497 94.1955 45.183C93.4135 44.401 92.8079 43.481 92.3785 42.423C91.9492 41.365 91.7345 40.2073 91.7345 38.95ZM116.116 39.893H120.693L125.523 47H120.325L116.116 39.893ZM111.746 30.9H116.208V47H111.746V30.9ZM114.598 34.672V30.9H118.071C119.543 30.9 120.755 31.13 121.705 31.59C122.671 32.05 123.384 32.6863 123.844 33.499C124.32 34.2963 124.557 35.224 124.557 36.282C124.557 37.3247 124.32 38.26 123.844 39.088C123.384 39.9007 122.671 40.537 121.705 40.997C120.755 41.4417 119.543 41.664 118.071 41.664H114.598V38.283H117.703C118.179 38.283 118.577 38.214 118.899 38.076C119.221 37.938 119.467 37.731 119.635 37.455C119.819 37.179 119.911 36.8493 119.911 36.466C119.911 36.0827 119.819 35.7607 119.635 35.5C119.467 35.224 119.221 35.017 118.899 34.879C118.577 34.741 118.179 34.672 117.703 34.672H114.598ZM126.923 45.252C126.923 44.5927 127.145 44.033 127.59 43.573C128.05 43.0977 128.64 42.86 129.361 42.86C130.082 42.86 130.664 43.0977 131.109 43.573C131.554 44.033 131.776 44.5927 131.776 45.252C131.776 45.896 131.554 46.4557 131.109 46.931C130.664 47.391 130.082 47.621 129.361 47.621C128.64 47.621 128.05 47.391 127.59 46.931C127.145 46.4557 126.923 45.896 126.923 45.252ZM138.103 39.134V37.271H140.702C141.116 37.271 141.461 37.2097 141.737 37.087C142.013 36.9643 142.22 36.788 142.358 36.558C142.512 36.328 142.588 36.052 142.588 35.73C142.588 35.2393 142.427 34.879 142.105 34.649C141.799 34.419 141.331 34.304 140.702 34.304H139.253V43.596H141.116C141.561 43.596 141.96 43.55 142.312 43.458C142.68 43.366 142.972 43.1973 143.186 42.952C143.401 42.6913 143.508 42.3233 143.508 41.848C143.508 41.5413 143.447 41.2883 143.324 41.089C143.202 40.8897 143.025 40.7287 142.795 40.606C142.581 40.4833 142.328 40.399 142.036 40.353C141.76 40.307 141.454 40.284 141.116 40.284H138.103V37.846H141.668C142.45 37.846 143.225 37.938 143.991 38.122C144.758 38.2907 145.456 38.5667 146.084 38.95C146.713 39.318 147.211 39.801 147.579 40.399C147.963 40.9817 148.154 41.687 148.154 42.515C148.154 43.5883 147.894 44.4547 147.372 45.114C146.851 45.7733 146.107 46.2563 145.141 46.563C144.175 46.8543 143.018 47 141.668 47H134.791V30.9H141.254C142.404 30.9 143.424 31.0533 144.313 31.36C145.218 31.6667 145.931 32.1267 146.452 32.74C146.974 33.338 147.234 34.097 147.234 35.017C147.234 35.891 146.974 36.6423 146.452 37.271C145.931 37.8843 145.218 38.352 144.313 38.674C143.424 38.9807 142.404 39.134 141.254 39.134H138.103ZM150.783 30.9H155.245V43.205H161.754V47H150.783V30.9ZM166.977 44.401L167.115 41.112H175.372L175.487 44.401H166.977ZM171.186 37.501L169.07 42.331L169.346 43.32L167.483 47H162.423L171.186 29.819L179.972 47H174.912L173.072 43.481L173.325 42.331L171.186 37.501ZM184.838 38.95C184.838 39.8547 185.037 40.629 185.436 41.273C185.85 41.9017 186.394 42.3847 187.069 42.722C187.743 43.044 188.487 43.205 189.3 43.205C190.066 43.205 190.733 43.1053 191.301 42.906C191.868 42.7067 192.374 42.4537 192.819 42.147C193.263 41.825 193.654 41.4877 193.992 41.135V45.827C193.363 46.287 192.665 46.6703 191.899 46.977C191.147 47.2683 190.181 47.414 189.001 47.414C187.667 47.414 186.44 47.2147 185.321 46.816C184.201 46.4173 183.243 45.8423 182.446 45.091C181.648 44.3397 181.027 43.4503 180.583 42.423C180.153 41.3803 179.939 40.2227 179.939 38.95C179.939 37.6773 180.153 36.5273 180.583 35.5C181.027 34.4573 181.648 33.5603 182.446 32.809C183.243 32.0577 184.201 31.4827 185.321 31.084C186.44 30.6853 187.667 30.486 189.001 30.486C190.181 30.486 191.147 30.6317 191.899 30.923C192.665 31.2143 193.363 31.5977 193.992 32.073V36.765C193.654 36.4123 193.263 36.0827 192.819 35.776C192.374 35.454 191.868 35.1933 191.301 34.994C190.733 34.7947 190.066 34.695 189.3 34.695C188.487 34.695 187.743 34.8637 187.069 35.201C186.394 35.523 185.85 36.006 185.436 36.65C185.037 37.2787 184.838 38.0453 184.838 38.95ZM197.075 30.9H201.721V47H197.075V30.9ZM206.942 30.9H212.14L205.746 38.444L212.485 47H207.08L200.433 38.582L206.942 30.9Z" fill="white"/>
<path d="M84.6917 58.335L86.3297 53.7H87.1847L84.7097 60.315L82.8197 55.419L80.9297 60.315L78.4547 53.7H79.3097L80.9837 58.335L82.8197 53.385L84.6917 58.335ZM88.4199 56.94V56.22H92.7399V56.94H88.4199ZM92.2269 53.7H92.9919V60H92.2269V53.7ZM87.9969 53.7H88.7619V60H87.9969V53.7ZM95.0334 58.11L95.3034 57.39H98.0934L98.3634 58.11H95.0334ZM96.6804 55.122L95.6184 57.624L95.5464 57.786L94.6104 60H93.7554L96.6804 53.385L99.6054 60H98.7504L97.8324 57.84L97.7604 57.66L96.6804 55.122ZM99.109 54.42V53.7H103.114V54.42H101.494V60H100.729V54.42H99.109ZM112.228 58.335L113.866 53.7H114.721L112.246 60.315L110.356 55.419L108.466 60.315L105.991 53.7H106.846L108.52 58.335L110.356 53.385L112.228 58.335ZM115.956 60V59.28H119.133V60H115.956ZM115.956 54.42V53.7H119.133V54.42H115.956ZM115.956 56.94V56.22H118.953V56.94H115.956ZM115.533 53.7H116.298V60H115.533V53.7ZM123.179 53.7H123.944V60H123.179V53.7ZM125.069 60H123.602V59.235H125.069C125.423 59.235 125.747 59.181 126.041 59.073C126.335 58.959 126.587 58.8 126.797 58.596C127.007 58.386 127.169 58.134 127.283 57.84C127.397 57.546 127.454 57.216 127.454 56.85C127.454 56.484 127.397 56.154 127.283 55.86C127.169 55.566 127.007 55.317 126.797 55.113C126.587 54.903 126.335 54.744 126.041 54.636C125.747 54.522 125.423 54.465 125.069 54.465H123.602V53.7H125.069C125.681 53.7 126.224 53.832 126.698 54.096C127.172 54.36 127.544 54.729 127.814 55.203C128.084 55.671 128.219 56.22 128.219 56.85C128.219 57.48 128.084 58.032 127.814 58.506C127.544 58.974 127.172 59.34 126.698 59.604C126.224 59.868 125.681 60 125.069 60ZM129.747 56.85C129.747 57.324 129.849 57.747 130.053 58.119C130.263 58.491 130.548 58.785 130.908 59.001C131.268 59.217 131.676 59.325 132.132 59.325C132.594 59.325 133.002 59.217 133.356 59.001C133.716 58.785 133.998 58.491 134.202 58.119C134.412 57.747 134.517 57.324 134.517 56.85C134.517 56.376 134.412 55.953 134.202 55.581C133.998 55.209 133.716 54.915 133.356 54.699C133.002 54.483 132.594 54.375 132.132 54.375C131.676 54.375 131.268 54.483 130.908 54.699C130.548 54.915 130.263 55.209 130.053 55.581C129.849 55.953 129.747 56.376 129.747 56.85ZM128.937 56.85C128.937 56.388 129.015 55.962 129.171 55.572C129.333 55.176 129.558 54.834 129.846 54.546C130.134 54.252 130.473 54.024 130.863 53.862C131.253 53.694 131.676 53.61 132.132 53.61C132.594 53.61 133.017 53.694 133.401 53.862C133.791 54.024 134.13 54.252 134.418 54.546C134.706 54.834 134.928 55.176 135.084 55.572C135.246 55.962 135.327 56.388 135.327 56.85C135.327 57.306 135.246 57.732 135.084 58.128C134.928 58.524 134.706 58.869 134.418 59.163C134.13 59.451 133.791 59.679 133.401 59.847C133.017 60.009 132.594 60.09 132.132 60.09C131.676 60.09 131.253 60.009 130.863 59.847C130.473 59.679 130.134 59.451 129.846 59.163C129.558 58.869 129.333 58.524 129.171 58.128C129.015 57.732 128.937 57.306 128.937 56.85ZM139.105 53.7H139.87V60H139.105V53.7ZM146.081 53.7H146.846V60.315L142.076 55.311V60H141.311V53.385L146.081 58.389V53.7ZM150.358 54.42V53.7H154.363V54.42H152.743V60H151.978V54.42H150.358ZM155.595 56.94V56.22H159.915V56.94H155.595ZM159.402 53.7H160.167V60H159.402V53.7ZM155.172 53.7H155.937V60H155.172V53.7ZM162.028 60V59.28H165.205V60H162.028ZM162.028 54.42V53.7H165.205V54.42H162.028ZM162.028 56.94V56.22H165.025V56.94H162.028ZM161.605 53.7H162.37V60H161.605V53.7ZM169.486 58.092C169.63 58.344 169.78 58.566 169.936 58.758C170.098 58.95 170.278 59.1 170.476 59.208C170.674 59.316 170.899 59.37 171.151 59.37C171.487 59.37 171.757 59.277 171.961 59.091C172.165 58.905 172.267 58.668 172.267 58.38C172.267 58.098 172.201 57.873 172.069 57.705C171.937 57.537 171.763 57.402 171.547 57.3C171.337 57.192 171.112 57.096 170.872 57.012C170.716 56.958 170.542 56.889 170.35 56.805C170.158 56.715 169.975 56.604 169.801 56.472C169.627 56.334 169.483 56.166 169.369 55.968C169.261 55.77 169.207 55.527 169.207 55.239C169.207 54.927 169.285 54.648 169.441 54.402C169.597 54.156 169.813 53.964 170.089 53.826C170.365 53.682 170.68 53.61 171.034 53.61C171.376 53.61 171.673 53.676 171.925 53.808C172.183 53.934 172.402 54.099 172.582 54.303C172.762 54.501 172.903 54.711 173.005 54.933L172.348 55.311C172.27 55.155 172.171 55.002 172.051 54.852C171.931 54.702 171.784 54.579 171.61 54.483C171.442 54.387 171.235 54.339 170.989 54.339C170.647 54.339 170.398 54.423 170.242 54.591C170.086 54.753 170.008 54.936 170.008 55.14C170.008 55.314 170.053 55.476 170.143 55.626C170.233 55.77 170.383 55.908 170.593 56.04C170.809 56.166 171.1 56.292 171.466 56.418C171.634 56.478 171.811 56.556 171.997 56.652C172.183 56.748 172.354 56.871 172.51 57.021C172.672 57.165 172.804 57.342 172.906 57.552C173.008 57.756 173.059 58.002 173.059 58.29C173.059 58.566 173.005 58.815 172.897 59.037C172.795 59.259 172.651 59.448 172.465 59.604C172.285 59.76 172.078 59.88 171.844 59.964C171.616 60.048 171.376 60.09 171.124 60.09C170.782 60.09 170.464 60.018 170.17 59.874C169.882 59.724 169.627 59.529 169.405 59.289C169.189 59.043 169.012 58.782 168.874 58.506L169.486 58.092ZM174.605 56.94V56.22H178.925V56.94H174.605ZM178.412 53.7H179.177V60H178.412V53.7ZM174.182 53.7H174.947V60H174.182V53.7ZM181.219 58.11L181.489 57.39H184.279L184.549 58.11H181.219ZM182.866 55.122L181.804 57.624L181.732 57.786L180.796 60H179.941L182.866 53.385L185.791 60H184.936L184.018 57.84L183.946 57.66L182.866 55.122ZM186.557 53.7H187.322V60H186.557V53.7ZM188.447 60H186.98V59.235H188.447C188.801 59.235 189.125 59.181 189.419 59.073C189.713 58.959 189.965 58.8 190.175 58.596C190.385 58.386 190.547 58.134 190.661 57.84C190.775 57.546 190.832 57.216 190.832 56.85C190.832 56.484 190.775 56.154 190.661 55.86C190.547 55.566 190.385 55.317 190.175 55.113C189.965 54.903 189.713 54.744 189.419 54.636C189.125 54.522 188.801 54.465 188.447 54.465H186.98V53.7H188.447C189.059 53.7 189.602 53.832 190.076 54.096C190.55 54.36 190.922 54.729 191.192 55.203C191.462 55.671 191.597 56.22 191.597 56.85C191.597 57.48 191.462 58.032 191.192 58.506C190.922 58.974 190.55 59.34 190.076 59.604C189.602 59.868 189.059 60 188.447 60ZM193.125 56.85C193.125 57.324 193.227 57.747 193.431 58.119C193.641 58.491 193.926 58.785 194.286 59.001C194.646 59.217 195.054 59.325 195.51 59.325C195.972 59.325 196.38 59.217 196.734 59.001C197.094 58.785 197.376 58.491 197.58 58.119C197.79 57.747 197.895 57.324 197.895 56.85C197.895 56.376 197.79 55.953 197.58 55.581C197.376 55.209 197.094 54.915 196.734 54.699C196.38 54.483 195.972 54.375 195.51 54.375C195.054 54.375 194.646 54.483 194.286 54.699C193.926 54.915 193.641 55.209 193.431 55.581C193.227 55.953 193.125 56.376 193.125 56.85ZM192.315 56.85C192.315 56.388 192.393 55.962 192.549 55.572C192.711 55.176 192.936 54.834 193.224 54.546C193.512 54.252 193.851 54.024 194.241 53.862C194.631 53.694 195.054 53.61 195.51 53.61C195.972 53.61 196.395 53.694 196.779 53.862C197.169 54.024 197.508 54.252 197.796 54.546C198.084 54.834 198.306 55.176 198.462 55.572C198.624 55.962 198.705 56.388 198.705 56.85C198.705 57.306 198.624 57.732 198.462 58.128C198.306 58.524 198.084 58.869 197.796 59.163C197.508 59.451 197.169 59.679 196.779 59.847C196.395 60.009 195.972 60.09 195.51 60.09C195.054 60.09 194.631 60.009 194.241 59.847C193.851 59.679 193.512 59.451 193.224 59.163C192.936 58.869 192.711 58.524 192.549 58.128C192.393 57.732 192.315 57.306 192.315 56.85ZM205.119 58.335L206.757 53.7H207.612L205.137 60.315L203.247 55.419L201.357 60.315L198.882 53.7H199.737L201.411 58.335L203.247 53.385L205.119 58.335ZM208.659 58.092C208.803 58.344 208.953 58.566 209.109 58.758C209.271 58.95 209.451 59.1 209.649 59.208C209.847 59.316 210.072 59.37 210.324 59.37C210.66 59.37 210.93 59.277 211.134 59.091C211.338 58.905 211.44 58.668 211.44 58.38C211.44 58.098 211.374 57.873 211.242 57.705C211.11 57.537 210.936 57.402 210.72 57.3C210.51 57.192 210.285 57.096 210.045 57.012C209.889 56.958 209.715 56.889 209.523 56.805C209.331 56.715 209.148 56.604 208.974 56.472C208.8 56.334 208.656 56.166 208.542 55.968C208.434 55.77 208.38 55.527 208.38 55.239C208.38 54.927 208.458 54.648 208.614 54.402C208.77 54.156 208.986 53.964 209.262 53.826C209.538 53.682 209.853 53.61 210.207 53.61C210.549 53.61 210.846 53.676 211.098 53.808C211.356 53.934 211.575 54.099 211.755 54.303C211.935 54.501 212.076 54.711 212.178 54.933L211.521 55.311C211.443 55.155 211.344 55.002 211.224 54.852C211.104 54.702 210.957 54.579 210.783 54.483C210.615 54.387 210.408 54.339 210.162 54.339C209.82 54.339 209.571 54.423 209.415 54.591C209.259 54.753 209.181 54.936 209.181 55.14C209.181 55.314 209.226 55.476 209.316 55.626C209.406 55.77 209.556 55.908 209.766 56.04C209.982 56.166 210.273 56.292 210.639 56.418C210.807 56.478 210.984 56.556 211.17 56.652C211.356 56.748 211.527 56.871 211.683 57.021C211.845 57.165 211.977 57.342 212.079 57.552C212.181 57.756 212.232 58.002 212.232 58.29C212.232 58.566 212.178 58.815 212.07 59.037C211.968 59.259 211.824 59.448 211.638 59.604C211.458 59.76 211.251 59.88 211.017 59.964C210.789 60.048 210.549 60.09 210.297 60.09C209.955 60.09 209.637 60.018 209.343 59.874C209.055 59.724 208.8 59.529 208.578 59.289C208.362 59.043 208.185 58.782 208.047 58.506L208.659 58.092Z" fill="white"/>
<defs>
<clipPath id="clip0_2483_12251">
<rect width="72" height="72" fill="white"/>
</clipPath>
</defs>
</svg>
